  0
SECTION
  2
HEADER
  9
$ACADVER
  1
AC1015
  9
$ACADMAINTVER
 70
     6
  9
$DWGCODEPAGE
  3
ANSI_1252
  9
$INSBASE
 10
0.0
 20
0.0
 30
0.0
  9
$EXTMIN
 10
0.0
 20
0.0
 30
0.0
  9
$EXTMAX
 10
863.6
 20
558.8
 30
0.0
  9
$LIMMIN
 10
0.0
 20
0.0
  9
$LIMMAX
 10
863.6
 20
558.8
  9
$ORTHOMODE
 70
     0
  9
$REGENMODE
 70
     1
  9
$FILLMODE
 70
     1
  9
$QTEXTMODE
 70
     0
  9
$MIRRTEXT
 70
     1
  9
$LTSCALE
 40
1.0
  9
$ATTMODE
 70
     1
  9
$TEXTSIZE
 40
3.175
  9
$TRACEWID
 40
1.0
  9
$TEXTSTYLE
  7
Standard
  9
$CLAYER
  8
0
  9
$CELTYPE
  6
ByLayer
  9
$CECOLOR
 62
   256
  9
$CELTSCALE
 40
1.0
  9
$DISPSILH
 70
     0
  9
$DIMSCALE
 40
1.0
  9
$DIMASZ
 40
3.302
  9
$DIMEXO
 40
1.27
  9
$DIMDLI
 40
3.75
  9
$DIMRND
 40
0.0
  9
$DIMDLE
 40
0.0
  9
$DIMEXE
 40
3.175
  9
$DIMTP
 40
0.0
  9
$DIMTM
 40
0.0
  9
$DIMTXT
 40
3.175
  9
$DIMCEN
 40
2.5
  9
$DIMTSZ
 40
0.0
  9
$DIMTOL
 70
     0
  9
$DIMLIM
 70
     0
  9
$DIMTIH
 70
     1
  9
$DIMTOH
 70
     1
  9
$DIMSE1
 70
     0
  9
$DIMSE2
 70
     0
  9
$DIMTAD
 70
     0
  9
$DIMZIN
 70
     1
  9
$DIMBLK
  1

  9
$DIMASO
 70
     1
  9
$DIMSHO
 70
     1
  9
$DIMPOST
  1

  9
$DIMAPOST
  1

  9
$DIMALT
 70
     0
  9
$DIMALTD
 70
     3
  9
$DIMALTF
 40
0.0393700787
  9
$DIMLFAC
 40
1.0
  9
$DIMTOFL
 70
     1
  9
$DIMTVP
 40
0.0
  9
$DIMTIX
 70
     0
  9
$DIMSOXD
 70
     0
  9
$DIMSAH
 70
     0
  9
$DIMBLK1
  1

  9
$DIMBLK2
  1

  9
$DIMSTYLE
  2
ISO-25
  9
$DIMCLRD
 70
     0
  9
$DIMCLRE
 70
     0
  9
$DIMCLRT
 70
     0
  9
$DIMTFAC
 40
1.0
  9
$DIMGAP
 40
1.524
  9
$DIMJUST
 70
     0
  9
$DIMSD1
 70
     0
  9
$DIMSD2
 70
     0
  9
$DIMTOLJ
 70
     0
  9
$DIMTZIN
 70
     1
  9
$DIMALTZ
 70
     0
  9
$DIMALTTZ
 70
     0
  9
$DIMUPT
 70
     0
  9
$DIMDEC
 70
     2
  9
$DIMTDEC
 70
     2
  9
$DIMALTU
 70
     2
  9
$DIMALTTD
 70
     3
  9
$DIMTXSTY
  7
Standard
  9
$DIMAUNIT
 70
     0
  9
$DIMADEC
 70
     2
  9
$DIMALTRND
 40
0.0
  9
$DIMAZIN
 70
     0
  9
$DIMDSEP
 70
    44
  9
$DIMATFIT
 70
     3
  9
$DIMFRAC
 70
     0
  9
$DIMLDRBLK
  1

  9
$DIMLUNIT
 70
     2
  9
$DIMLWD
 70
    -2
  9
$DIMLWE
 70
    -2
  9
$DIMTMOVE
 70
     0
  9
$LUNITS
 70
     2
  9
$LUPREC
 70
     2
  9
$SKETCHINC
 40
1.0
  9
$FILLETRAD
 40
0.0
  9
$AUNITS
 70
     0
  9
$AUPREC
 70
     2
  9
$MENU
  1
.
  9
$ELEVATION
 40
0.0
  9
$PELEVATION
 40
0.0
  9
$THICKNESS
 40
0.0
  9
$LIMCHECK
 70
     0
  9
$CHAMFERA
 40
0.0
  9
$CHAMFERB
 40
0.0
  9
$CHAMFERC
 40
0.0
  9
$CHAMFERD
 40
0.0
  9
$SKPOLY
 70
     0
  9
$TDCREATE
 40
2460701.109706436
  9
$TDUCREATE
 40
2460700.880539769
  9
$TDUPDATE
 40
2460701.109709827
  9
$TDUUPDATE
 40
2460700.88054316
  9
$TDINDWG
 40
0.0000000116
  9
$TDUSRTIMER
 40
0.0000000116
  9
$USRTIMER
 70
     1
  9
$ANGBASE
 50
0.0
  9
$ANGDIR
 70
     0
  9
$PDMODE
 70
     0
  9
$PDSIZE
 40
-1.0
  9
$PLINEWID
 40
0.0
  9
$SPLFRAME
 70
     0
  9
$SPLINETYPE
 70
     6
  9
$SPLINESEGS
 70
     8
  9
$HANDSEED
  5
1E3
  9
$SURFTAB1
 70
     6
  9
$SURFTAB2
 70
     6
  9
$SURFTYPE
 70
     6
  9
$SURFU
 70
     6
  9
$SURFV
 70
     6
  9
$UCSBASE
  2

  9
$UCSNAME
  2

  9
$UCSORG
 10
0.0
 20
0.0
 30
0.0
  9
$UCSXDIR
 10
1.0
 20
0.0
 30
0.0
  9
$UCSYDIR
 10
0.0
 20
1.0
 30
0.0
  9
$UCSORTHOREF
  2

  9
$UCSORTHOVIEW
 70
     0
  9
$UCSORGTOP
 10
0.0
 20
0.0
 30
0.0
  9
$UCSORGBOTTOM
 10
0.0
 20
0.0
 30
0.0
  9
$UCSORGLEFT
 10
0.0
 20
0.0
 30
0.0
  9
$UCSORGRIGHT
 10
0.0
 20
0.0
 30
0.0
  9
$UCSORGFRONT
 10
0.0
 20
0.0
 30
0.0
  9
$UCSORGBACK
 10
0.0
 20
0.0
 30
0.0
  9
$PUCSBASE
  2

  9
$PUCSNAME
  2

  9
$PUCSORG
 10
0.0
 20
0.0
 30
0.0
  9
$PUCSXDIR
 10
1.0
 20
0.0
 30
0.0
  9
$PUCSYDIR
 10
0.0
 20
1.0
 30
0.0
  9
$PUCSORTHOREF
  2

  9
$PUCSORTHOVIEW
 70
     0
  9
$PUCSORGTOP
 10
0.0
 20
0.0
 30
0.0
  9
$PUCSORGBOTTOM
 10
0.0
 20
0.0
 30
0.0
  9
$PUCSORGLEFT
 10
0.0
 20
0.0
 30
0.0
  9
$PUCSORGRIGHT
 10
0.0
 20
0.0
 30
0.0
  9
$PUCSORGFRONT
 10
0.0
 20
0.0
 30
0.0
  9
$PUCSORGBACK
 10
0.0
 20
0.0
 30
0.0
  9
$USERI1
 70
     0
  9
$USERI2
 70
     0
  9
$USERI3
 70
     0
  9
$USERI4
 70
     0
  9
$USERI5
 70
     0
  9
$USERR1
 40
0.0
  9
$USERR2
 40
0.0
  9
$USERR3
 40
0.0
  9
$USERR4
 40
0.0
  9
$USERR5
 40
0.0
  9
$WORLDVIEW
 70
     1
  9
$SHADEDGE
 70
     3
  9
$SHADEDIF
 70
    70
  9
$TILEMODE
 70
     1
  9
$MAXACTVP
 70
    64
  9
$PINSBASE
 10
0.0
 20
0.0
 30
0.0
  9
$PLIMCHECK
 70
     0
  9
$PEXTMIN
 10
1.0000000000E+20
 20
1.0000000000E+20
 30
1.0000000000E+20
  9
$PEXTMAX
 10
-1.0000000000E+20
 20
-1.0000000000E+20
 30
-1.0000000000E+20
  9
$PLIMMIN
 10
0.0
 20
0.0
  9
$PLIMMAX
 10
420.0
 20
297.0
  9
$UNITMODE
 70
     0
  9
$VISRETAIN
 70
     1
  9
$PLINEGEN
 70
     0
  9
$PSLTSCALE
 70
     1
  9
$TREEDEPTH
 70
  3020
  9
$CMLSTYLE
  2
Standard
  9
$CMLJUST
 70
     0
  9
$CMLSCALE
 40
20.0
  9
$PROXYGRAPHICS
 70
     1
  9
$MEASUREMENT
 70
     1
  9
$CELWEIGHT
370
    -1
  9
$ENDCAPS
280
     0
  9
$JOINSTYLE
280
     0
  9
$LWDISPLAY
290
     1
  9
$INSUNITS
 70
     4
  9
$HYPERLINKBASE
  1

  9
$STYLESHEET
  1

  9
$XEDIT
290
     1
  9
$CEPSNTYPE
380
     0
  9
$PSTYLEMODE
290
     1
  9
$FINGERPRINTGUID
  2
{1810ddac-fc78-4b14-929b-ac0560d5813d}
  9
$VERSIONGUID
  2
{FAEB1C32-E019-11D5-929B-00C0DF256EC4}
  9
$EXTNAMES
290
     1
  9
$PSVPSCALE
 40
0.0
  9
$OLESTARTUP
290
     0
  0
ENDSEC
  0
SECTION
  2
CLASSES
  0
CLASS
  1
ACDBDICTIONARYWDFLT
  2
AcDbDictionaryWithDefault
  3
ObjectDBX Classes
 90
        0
280
     0
281
     0
  0
CLASS
  1
VISUALSTYLE
  2
AcDbVisualStyle
  3
ObjectDBX Classes
 90
     4095
280
     0
281
     0
  0
CLASS
  1
MATERIAL
  2
AcDbMaterial
  3
ObjectDBX Classes
 90
     1153
280
     0
281
     0
  0
CLASS
  1
SCALE
  2
AcDbScale
  3
ObjectDBX Classes
 90
     1153
280
     0
281
     0
  0
CLASS
  1
TABLESTYLE
  2
AcDbTableStyle
  3
ObjectDBX Classes
 90
     4095
280
     0
281
     0
  0
CLASS
  1
MLEADERSTYLE
  2
AcDbMLeaderStyle
  3
ACDB_MLEADERSTYLE_CLASS
 90
     4095
280
     0
281
     0
  0
CLASS
  1
SUN
  2
AcDbSun
  3
SCENEOE
 90
     1153
280
     0
281
     0
  0
CLASS
  1
ACDBPLACEHOLDER
  2
AcDbPlaceHolder
  3
ObjectDBX Classes
 90
        0
280
     0
281
     0
  0
CLASS
  1
LAYOUT
  2
AcDbLayout
  3
ObjectDBX Classes
 90
        0
280
     0
281
     0
  0
ENDSEC
  0
SECTION
  2
TABLES
  0
TABLE
  2
VPORT
  5
8
330
0
100
AcDbSymbolTable
 70
     1
  0
VPORT
  5
29
330
8
100
AcDbSymbolTableRecord
100
AcDbViewportTableRecord
  2
*Active
 70
     0
 10
0.0
 20
0.0
 11
1.0
 21
1.0
 12
431.8
 22
279.4
 13
0.0
 23
0.0
 14
10.0
 24
10.0
 15
10.0
 25
10.0
 16
0.0
 26
0.0
 36
1.0
 17
0.0
 27
0.0
 37
0.0
 40
558.8
 41
1.5454545455
 42
50.0
 43
0.0
 44
0.0
 50
0.0
 51
0.0
 71
     0
 72
  2000
 73
     1
 74
     3
 75
     0
 76
     0
 77
     0
 78
     0
281
     0
 65
     1
110
0.0
120
0.0
130
0.0
111
1.0
121
0.0
131
0.0
112
0.0
122
1.0
132
0.0
 79
     0
146
0.0
  0
ENDTAB
  0
TABLE
  2
LTYPE
  5
5
330
0
100
AcDbSymbolTable
 70
     6
  0
LTYPE
  5
14
330
5
100
AcDbSymbolTableRecord
100
AcDbLinetypeTableRecord
  2
ByBlock
 70
     0
  3

 72
    65
 73
     0
 40
0.0
  0
LTYPE
  5
15
330
5
100
AcDbSymbolTableRecord
100
AcDbLinetypeTableRecord
  2
ByLayer
 70
     0
  3

 72
    65
 73
     0
 40
0.0
  0
LTYPE
  5
16
330
5
100
AcDbSymbolTableRecord
100
AcDbLinetypeTableRecord
  2
Continuous
 70
     0
  3
Solid line
 72
    65
 73
     0
 40
0.0
  0
LTYPE
  5
5E
330
5
100
AcDbSymbolTableRecord
100
AcDbLinetypeTableRecord
  2
HIDDEN
 70
     0
  3
Hidden __ __ __ __ __ __ __ __ __ __ __ __ __ __
 72
    65
 73
     2
 40
1.905
 49
1.27
 74
     0
 49
-0.635
 74
     0
  0
LTYPE
  5
5F
330
5
100
AcDbSymbolTableRecord
100
AcDbLinetypeTableRecord
  2
PHANTOM
 70
     0
  3
Phantom ______  __  __  ______  __  __  ______
 72
    65
 73
     6
 40
12.7
 49
6.35
 74
     0
 49
-1.27
 74
     0
 49
1.27
 74
     0
 49
-1.27
 74
     0
 49
1.27
 74
     0
 49
-1.27
 74
     0
  0
LTYPE
  5
60
330
5
100
AcDbSymbolTableRecord
100
AcDbLinetypeTableRecord
  2
CENTER
 70
     0
  3
Center ____ _ ____ _ ____ _ ____ _ ____ _ ____
 72
    65
 73
     4
 40
10.16
 49
6.35
 74
     0
 49
-1.27
 74
     0
 49
1.27
 74
     0
 49
-1.27
 74
     0
  0
LTYPE
  5
61
330
5
100
AcDbSymbolTableRecord
100
AcDbLinetypeTableRecord
  2
CENTERX2
 70
     0
  3
Center (2x) ________  __  ________  __  _____
 72
    65
 73
     4
 40
20.32
 49
12.7
 74
     0
 49
-2.54
 74
     0
 49
2.54
 74
     0
 49
-2.54
 74
     0
  0
LTYPE
  5
62
330
5
100
AcDbSymbolTableRecord
100
AcDbLinetypeTableRecord
  2
DOT2
 70
     0
  3
Dot (.5x) ........................................
 72
    65
 73
     2
 40
0.635
 49
0.0
 74
     0
 49
-0.635
 74
     0
  0
ENDTAB
  0
TABLE
  2
LAYER
  5
2
330
0
100
AcDbSymbolTable
 70
     1
  0
LAYER
  5
10
330
2
100
AcDbSymbolTableRecord
100
AcDbLayerTableRecord
  2
0
 70
     0
 62
     7
  6
Continuous
370
    -3
390
F
  0
ENDTAB
  0
TABLE
  2
STYLE
  5
3
330
0
100
AcDbSymbolTable
 70
     5
  0
STYLE
  5
11
330
3
100
AcDbSymbolTableRecord
100
AcDbTextStyleTableRecord
  2
Standard
 70
     0
 40
0.0
 41
1.0
 50
0.0
 71
     0
 42
3.175
  3
txt
  4

  0
STYLE
  5
D0
330
3
100
AcDbSymbolTableRecord
100
AcDbTextStyleTableRecord
  2
SLDTEXTSTYLE0
 70
     0
 40
0.0
 41
0.75
 50
0.0
 71
     0
 42
3.175
  3
TXT
  4

  0
STYLE
  5
1B1
330
3
100
AcDbSymbolTableRecord
100
AcDbTextStyleTableRecord
  2
SLDTEXTSTYLE1
 70
     0
 40
0.0
 41
0.6875
 50
0.0
 71
     0
 42
3.175
  3
TXT
  4

  0
STYLE
  5
1B7
330
3
100
AcDbSymbolTableRecord
100
AcDbTextStyleTableRecord
  2
SLDTEXTSTYLE2
 70
     0
 40
0.0
 41
0.6944444444
 50
0.0
 71
     0
 42
3.175
  3
TXT
  4

  0
STYLE
  5
1DF
330
3
100
AcDbSymbolTableRecord
100
AcDbTextStyleTableRecord
  2
SLDTEXTSTYLE3
 70
     0
 40
0.0
 41
0.7
 50
0.0
 71
     0
 42
3.175
  3
TXT
  4

  0
ENDTAB
  0
TABLE
  2
VIEW
  5
6
330
0
100
AcDbSymbolTable
 70
     0
  0
ENDTAB
  0
TABLE
  2
UCS
  5
7
330
0
100
AcDbSymbolTable
 70
     0
  0
ENDTAB
  0
TABLE
  2
APPID
  5
9
330
0
100
AcDbSymbolTable
 70
     1
  0
APPID
  5
12
330
9
100
AcDbSymbolTableRecord
100
AcDbRegAppTableRecord
  2
ACAD
 70
     0
  0
ENDTAB
  0
TABLE
  2
DIMSTYLE
  5
A
330
0
100
AcDbSymbolTable
 70
     2
100
AcDbDimStyleTable
  0
DIMSTYLE
105
27
330
A
100
AcDbSymbolTableRecord
100
AcDbDimStyleTableRecord
  2
ISO-25
 70
     0
 41
2.5
 42
0.625
 43
3.75
 44
1.25
 73
     0
 74
     0
 77
     1
 78
     8
140
2.5
141
2.5
143
0.0393700787
147
0.625
171
     3
172
     1
178
     0
271
     2
272
     2
274
     3
278
    44
283
     0
284
     8
340
11
  0
DIMSTYLE
105
D1
102
{ACAD_REACTORS
330
CF
330
DC
330
E7
330
F2
330
FD
330
108
330
113
330
11E
330
129
330
134
330
13F
330
14A
330
155
330
160
330
16B
330
176
330
181
330
18C
102
}
330
A
100
AcDbSymbolTableRecord
100
AcDbDimStyleTableRecord
  2
SLDDIMSTYLE0
 70
     0
 41
3.302
 44
0.0
 45
0.000000001
 78
     4
 79
     1
140
3.175
147
0.79375
173
     1
178
     0
271
     2
272
     2
276
     2
284
    12
340
D0
  0
ENDTAB
  0
TABLE
  2
BLOCK_RECORD
  5
1
330
0
100
AcDbSymbolTable
 70
    19
  0
BLOCK_RECORD
  5
1F
330
1
100
AcDbSymbolTableRecord
100
AcDbBlockTableRecord
  2
*Model_Space
340
22
  0
BLOCK_RECORD
  5
1B
330
1
100
AcDbSymbolTableRecord
100
AcDbBlockTableRecord
  2
*Paper_Space
340
1E
  0
BLOCK_RECORD
  5
23
330
1
100
AcDbSymbolTableRecord
100
AcDbBlockTableRecord
  2
*Paper_Space0
340
26
  0
BLOCK_RECORD
  5
D2
330
1
100
AcDbSymbolTableRecord
100
AcDbBlockTableRecord
  2
_D
340
0
  0
BLOCK_RECORD
  5
DD
330
1
100
AcDbSymbolTableRecord
100
AcDbBlockTableRecord
  2
_D_1
340
0
  0
BLOCK_RECORD
  5
E8
330
1
100
AcDbSymbolTableRecord
100
AcDbBlockTableRecord
  2
_D_2
340
0
  0
BLOCK_RECORD
  5
F3
330
1
100
AcDbSymbolTableRecord
100
AcDbBlockTableRecord
  2
_D_3
340
0
  0
BLOCK_RECORD
  5
FE
330
1
100
AcDbSymbolTableRecord
100
AcDbBlockTableRecord
  2
_D_4
340
0
  0
BLOCK_RECORD
  5
109
330
1
100
AcDbSymbolTableRecord
100
AcDbBlockTableRecord
  2
_D_5
340
0
  0
BLOCK_RECORD
  5
114
330
1
100
AcDbSymbolTableRecord
100
AcDbBlockTableRecord
  2
_D_6
340
0
  0
BLOCK_RECORD
  5
11F
330
1
100
AcDbSymbolTableRecord
100
AcDbBlockTableRecord
  2
_D_7
340
0
  0
BLOCK_RECORD
  5
12A
330
1
100
AcDbSymbolTableRecord
100
AcDbBlockTableRecord
  2
_D_8
340
0
  0
BLOCK_RECORD
  5
135
330
1
100
AcDbSymbolTableRecord
100
AcDbBlockTableRecord
  2
_D_9
340
0
  0
BLOCK_RECORD
  5
140
330
1
100
AcDbSymbolTableRecord
100
AcDbBlockTableRecord
  2
_D_10
340
0
  0
BLOCK_RECORD
  5
14B
330
1
100
AcDbSymbolTableRecord
100
AcDbBlockTableRecord
  2
_D_11
340
0
  0
BLOCK_RECORD
  5
156
330
1
100
AcDbSymbolTableRecord
100
AcDbBlockTableRecord
  2
_D_12
340
0
  0
BLOCK_RECORD
  5
161
330
1
100
AcDbSymbolTableRecord
100
AcDbBlockTableRecord
  2
_D_13
340
0
  0
BLOCK_RECORD
  5
16C
330
1
100
AcDbSymbolTableRecord
100
AcDbBlockTableRecord
  2
_D_14
340
0
  0
BLOCK_RECORD
  5
177
330
1
100
AcDbSymbolTableRecord
100
AcDbBlockTableRecord
  2
_D_15
340
0
  0
BLOCK_RECORD
  5
182
330
1
100
AcDbSymbolTableRecord
100
AcDbBlockTableRecord
  2
_D_16
340
0
  0
BLOCK_RECORD
  5
18D
330
1
100
AcDbSymbolTableRecord
100
AcDbBlockTableRecord
  2
_D_17
340
0
  0
ENDTAB
  0
ENDSEC
  0
SECTION
  2
BLOCKS
  0
BLOCK
  5
20
330
1F
100
AcDbEntity
  8
0
100
AcDbBlockBegin
  2
*Model_Space
 70
     0
 10
0.0
 20
0.0
 30
0.0
  3
*Model_Space
  1

  0
ENDBLK
  5
21
330
1F
100
AcDbEntity
  8
0
100
AcDbBlockEnd
  0
BLOCK
  5
1C
330
1B
100
AcDbEntity
 67
     1
  8
0
100
AcDbBlockBegin
  2
*Paper_Space
 70
     0
 10
0.0
 20
0.0
 30
0.0
  3
*Paper_Space
  1

  0
ENDBLK
  5
1D
330
1B
100
AcDbEntity
 67
     1
  8
0
100
AcDbBlockEnd
  0
BLOCK
  5
24
330
23
100
AcDbEntity
  8
0
100
AcDbBlockBegin
  2
*Paper_Space0
 70
     0
 10
0.0
 20
0.0
 30
0.0
  3
*Paper_Space0
  1

  0
ENDBLK
  5
25
330
23
100
AcDbEntity
  8
0
100
AcDbBlockEnd
  0
BLOCK
  5
D3
330
D2
100
AcDbEntity
  8
0
100
AcDbBlockBegin
  2
_D
 70
     0
 10
0.0
 20
0.0
 30
0.0
  3
_D
  1

  0
SOLID
  5
D5
330
D2
100
AcDbEntity
  8
0
  6
Continuous
 62
     7
370
    18
100
AcDbTrace
 10
45.9074434366
 20
478.841040532
 30
0.0
 11
49.2094434366
 21
478.333040532
 31
0.0
 12
49.2094434366
 22
479.349040532
 32
0.0
 13
49.2094434366
 23
479.349040532
 33
0.0
  0
SOLID
  5
D6
330
D2
100
AcDbEntity
  8
0
  6
Continuous
 62
     7
370
    18
100
AcDbTrace
 10
117.9074434366
 20
478.841040532
 30
0.0
 11
114.6054434366
 21
479.349040532
 31
0.0
 12
114.6054434366
 22
478.333040532
 32
0.0
 13
114.6054434366
 23
478.333040532
 33
0.0
  0
LINE
  5
D7
330
D2
100
AcDbEntity
  8
0
  6
Continuous
 62
     7
370
     0
100
AcDbLine
 10
45.9074434366
 20
492.322467498
 30
0.0
 11
45.9074434366
 21
475.666040532
 31
0.0
  0
LINE
  5
D8
330
D2
100
AcDbEntity
  8
0
  6
Continuous
 62
     7
370
     0
100
AcDbLine
 10
117.9074434366
 20
492.322467498
 30
0.0
 11
117.9074434366
 21
475.666040532
 31
0.0
  0
LINE
  5
D9
330
D2
100
AcDbEntity
  8
0
  6
Continuous
 62
     7
370
     0
100
AcDbLine
 10
45.9074434366
 20
478.841040532
 30
0.0
 11
75.1393420104
 21
478.841040532
 31
0.0
  0
LINE
  5
DA
330
D2
100
AcDbEntity
  8
0
  6
Continuous
 62
     7
370
     0
100
AcDbLine
 10
117.9074434366
 20
478.841040532
 30
0.0
 11
85.6962168072
 21
478.841040532
 31
0.0
  0
MTEXT
  5
DB
330
D2
100
AcDbEntity
  8
0
  6
Continuous
 62
     7
370
    18
100
AcDbMText
 10
75.1393420104
 20
480.4136746293
 30
0.0
 40
3.175
 41
0.0
 71
     1
 72
     1
  1
72.00
  7
SLDTEXTSTYLE0
 73
     1
 44
1.0
  0
ENDBLK
  5
D4
330
D2
100
AcDbEntity
  8
0
100
AcDbBlockEnd
  0
BLOCK
  5
DE
330
DD
100
AcDbEntity
  8
0
100
AcDbBlockBegin
  2
_D_1
 70
     0
 10
0.0
 20
0.0
 30
0.0
  3
_D_1
  1

  0
SOLID
  5
E0
330
DD
100
AcDbEntity
  8
0
  6
Continuous
 62
     7
370
    18
100
AcDbTrace
 10
117.9074434366
 20
470.8146062595
 30
0.0
 11
121.2094434366
 21
470.3066062595
 31
0.0
 12
121.2094434366
 22
471.3226062595
 32
0.0
 13
121.2094434366
 23
471.3226062595
 33
0.0
  0
SOLID
  5
E1
330
DD
100
AcDbEntity
  8
0
  6
Continuous
 62
     7
370
    18
100
AcDbTrace
 10
317.9074434366
 20
470.8146062595
 30
0.0
 11
314.6054434366
 21
471.3226062595
 31
0.0
 12
314.6054434366
 22
470.3066062595
 32
0.0
 13
314.6054434366
 23
470.3066062595
 33
0.0
  0
LINE
  5
E2
330
DD
100
AcDbEntity
  8
0
  6
Continuous
 62
     7
370
     0
100
AcDbLine
 10
117.9074434366
 20
488.322467498
 30
0.0
 11
117.9074434366
 21
467.6396062595
 31
0.0
  0
LINE
  5
E3
330
DD
100
AcDbEntity
  8
0
  6
Continuous
 62
     7
370
     0
100
AcDbLine
 10
317.9074434366
 20
488.322467498
 30
0.0
 11
317.9074434366
 21
467.6396062595
 31
0.0
  0
LINE
  5
E4
330
DD
100
AcDbEntity
  8
0
  6
Continuous
 62
     7
370
     0
100
AcDbLine
 10
117.9074434366
 20
470.8146062595
 30
0.0
 11
192.6829947956
 21
470.8146062595
 31
0.0
  0
LINE
  5
E5
330
DD
100
AcDbEntity
  8
0
  6
Continuous
 62
     7
370
     0
100
AcDbLine
 10
317.9074434366
 20
470.8146062595
 30
0.0
 11
205.5858413554
 21
470.8146062595
 31
0.0
  0
MTEXT
  5
E6
330
DD
100
AcDbEntity
  8
0
  6
Continuous
 62
     7
370
    18
100
AcDbMText
 10
192.6829947956
 20
472.3872403568
 30
0.0
 40
3.175
 41
0.0
 71
     1
 72
     1
  1
200.00
  7
SLDTEXTSTYLE0
 73
     1
 44
1.0
  0
ENDBLK
  5
DF
330
DD
100
AcDbEntity
  8
0
100
AcDbBlockEnd
  0
BLOCK
  5
E9
330
E8
100
AcDbEntity
  8
0
100
AcDbBlockBegin
  2
_D_2
 70
     0
 10
0.0
 20
0.0
 30
0.0
  3
_D_2
  1

  0
SOLID
  5
EB
330
E8
100
AcDbEntity
  8
0
  6
Continuous
 62
     7
370
    18
100
AcDbTrace
 10
317.9074434366
 20
483.9303187524
 30
0.0
 11
321.2094434366
 21
483.4223187524
 31
0.0
 12
321.2094434366
 22
484.4383187524
 32
0.0
 13
321.2094434366
 23
484.4383187524
 33
0.0
  0
SOLID
  5
EC
330
E8
100
AcDbEntity
  8
0
  6
Continuous
 62
     7
370
    18
100
AcDbTrace
 10
393.9074434366
 20
483.9303187524
 30
0.0
 11
390.6054434366
 21
484.4383187524
 31
0.0
 12
390.6054434366
 22
483.4223187524
 32
0.0
 13
390.6054434366
 23
483.4223187524
 33
0.0
  0
LINE
  5
ED
330
E8
100
AcDbEntity
  8
0
  6
Continuous
 62
     7
370
     0
100
AcDbLine
 10
317.9074434366
 20
492.322467498
 30
0.0
 11
317.9074434366
 21
480.7553187524
 31
0.0
  0
LINE
  5
EE
330
E8
100
AcDbEntity
  8
0
  6
Continuous
 62
     7
370
     0
100
AcDbLine
 10
393.9074434366
 20
492.322467498
 30
0.0
 11
393.9074434366
 21
480.7553187524
 31
0.0
  0
LINE
  5
EF
330
E8
100
AcDbEntity
  8
0
  6
Continuous
 62
     7
370
     0
100
AcDbLine
 10
317.9074434366
 20
483.9303187524
 30
0.0
 11
356.116552515
 21
483.9303187524
 31
0.0
  0
LINE
  5
F0
330
E8
100
AcDbEntity
  8
0
  6
Continuous
 62
     7
370
     0
100
AcDbLine
 10
393.9074434366
 20
483.9303187524
 30
0.0
 11
366.6734273118
 21
483.9303187524
 31
0.0
  0
MTEXT
  5
F1
330
E8
100
AcDbEntity
  8
0
  6
Continuous
 62
     7
370
    18
100
AcDbMText
 10
356.116552515
 20
485.5029528497
 30
0.0
 40
3.175
 41
0.0
 71
     1
 72
     1
  1
76.00
  7
SLDTEXTSTYLE0
 73
     1
 44
1.0
  0
ENDBLK
  5
EA
330
E8
100
AcDbEntity
  8
0
100
AcDbBlockEnd
  0
BLOCK
  5
F4
330
F3
100
AcDbEntity
  8
0
100
AcDbBlockBegin
  2
_D_3
 70
     0
 10
0.0
 20
0.0
 30
0.0
  3
_D_3
  1

  0
SOLID
  5
F6
330
F3
100
AcDbEntity
  8
0
  6
Continuous
 62
     7
370
    18
100
AcDbTrace
 10
44.1491700602
 20
399.3319343644
 30
0.0
 11
47.4511700602
 21
398.8239343644
 31
0.0
 12
47.4511700602
 22
399.8399343644
 32
0.0
 13
47.4511700602
 23
399.8399343644
 33
0.0
  0
SOLID
  5
F7
330
F3
100
AcDbEntity
  8
0
  6
Continuous
 62
     7
370
    18
100
AcDbTrace
 10
116.1491700602
 20
399.3319343644
 30
0.0
 11
112.8471700602
 21
399.8399343644
 31
0.0
 12
112.8471700602
 22
398.8239343644
 32
0.0
 13
112.8471700602
 23
398.8239343644
 33
0.0
  0
LINE
  5
F8
330
F3
100
AcDbEntity
  8
0
  6
Continuous
 62
     7
370
     0
100
AcDbLine
 10
44.1491700602
 20
412.8133613304
 30
0.0
 11
44.1491700602
 21
396.1569343644
 31
0.0
  0
LINE
  5
F9
330
F3
100
AcDbEntity
  8
0
  6
Continuous
 62
     7
370
     0
100
AcDbLine
 10
116.1491700602
 20
412.8133613304
 30
0.0
 11
116.1491700602
 21
396.1569343644
 31
0.0
  0
LINE
  5
FA
330
F3
100
AcDbEntity
  8
0
  6
Continuous
 62
     7
370
     0
100
AcDbLine
 10
44.1491700602
 20
399.3319343644
 30
0.0
 11
73.3810686341
 21
399.3319343644
 31
0.0
  0
LINE
  5
FB
330
F3
100
AcDbEntity
  8
0
  6
Continuous
 62
     7
370
     0
100
AcDbLine
 10
116.1491700602
 20
399.3319343644
 30
0.0
 11
83.9379434308
 21
399.3319343644
 31
0.0
  0
MTEXT
  5
FC
330
F3
100
AcDbEntity
  8
0
  6
Continuous
 62
     7
370
    18
100
AcDbMText
 10
73.3810686341
 20
400.9045684617
 30
0.0
 40
3.175
 41
0.0
 71
     1
 72
     1
  1
72.00
  7
SLDTEXTSTYLE0
 73
     1
 44
1.0
  0
ENDBLK
  5
F5
330
F3
100
AcDbEntity
  8
0
100
AcDbBlockEnd
  0
BLOCK
  5
FF
330
FE
100
AcDbEntity
  8
0
100
AcDbBlockBegin
  2
_D_4
 70
     0
 10
0.0
 20
0.0
 30
0.0
  3
_D_4
  1

  0
SOLID
  5
101
330
FE
100
AcDbEntity
  8
0
  6
Continuous
 62
     7
370
    18
100
AcDbTrace
 10
116.1491700602
 20
391.3055000919
 30
0.0
 11
119.4511700602
 21
390.7975000919
 31
0.0
 12
119.4511700602
 22
391.8135000919
 32
0.0
 13
119.4511700602
 23
391.8135000919
 33
0.0
  0
SOLID
  5
102
330
FE
100
AcDbEntity
  8
0
  6
Continuous
 62
     7
370
    18
100
AcDbTrace
 10
316.1491700602
 20
391.3055000919
 30
0.0
 11
312.8471700602
 21
391.8135000919
 31
0.0
 12
312.8471700602
 22
390.7975000919
 32
0.0
 13
312.8471700602
 23
390.7975000919
 33
0.0
  0
LINE
  5
103
330
FE
100
AcDbEntity
  8
0
  6
Continuous
 62
     7
370
     0
100
AcDbLine
 10
116.1491700602
 20
408.8133613304
 30
0.0
 11
116.1491700602
 21
388.1305000919
 31
0.0
  0
LINE
  5
104
330
FE
100
AcDbEntity
  8
0
  6
Continuous
 62
     7
370
     0
100
AcDbLine
 10
316.1491700602
 20
408.8133613304
 30
0.0
 11
316.1491700602
 21
388.1305000919
 31
0.0
  0
LINE
  5
105
330
FE
100
AcDbEntity
  8
0
  6
Continuous
 62
     7
370
     0
100
AcDbLine
 10
116.1491700602
 20
391.3055000919
 30
0.0
 11
190.9247214192
 21
391.3055000919
 31
0.0
  0
LINE
  5
106
330
FE
100
AcDbEntity
  8
0
  6
Continuous
 62
     7
370
     0
100
AcDbLine
 10
316.1491700602
 20
391.3055000919
 30
0.0
 11
203.8275679791
 21
391.3055000919
 31
0.0
  0
MTEXT
  5
107
330
FE
100
AcDbEntity
  8
0
  6
Continuous
 62
     7
370
    18
100
AcDbMText
 10
190.9247214192
 20
392.8781341892
 30
0.0
 40
3.175
 41
0.0
 71
     1
 72
     1
  1
200.00
  7
SLDTEXTSTYLE0
 73
     1
 44
1.0
  0
ENDBLK
  5
100
330
FE
100
AcDbEntity
  8
0
100
AcDbBlockEnd
  0
BLOCK
  5
10A
330
109
100
AcDbEntity
  8
0
100
AcDbBlockBegin
  2
_D_5
 70
     0
 10
0.0
 20
0.0
 30
0.0
  3
_D_5
  1

  0
SOLID
  5
10C
330
109
100
AcDbEntity
  8
0
  6
Continuous
 62
     7
370
    18
100
AcDbTrace
 10
316.1491700602
 20
404.4212125848
 30
0.0
 11
319.4511700602
 21
403.9132125848
 31
0.0
 12
319.4511700602
 22
404.9292125848
 32
0.0
 13
319.4511700602
 23
404.9292125848
 33
0.0
  0
SOLID
  5
10D
330
109
100
AcDbEntity
  8
0
  6
Continuous
 62
     7
370
    18
100
AcDbTrace
 10
392.1491700602
 20
404.4212125848
 30
0.0
 11
388.8471700602
 21
404.9292125848
 31
0.0
 12
388.8471700602
 22
403.9132125848
 32
0.0
 13
388.8471700602
 23
403.9132125848
 33
0.0
  0
LINE
  5
10E
330
109
100
AcDbEntity
  8
0
  6
Continuous
 62
     7
370
     0
100
AcDbLine
 10
316.1491700602
 20
412.8133613304
 30
0.0
 11
316.1491700602
 21
401.2462125848
 31
0.0
  0
LINE
  5
10F
330
109
100
AcDbEntity
  8
0
  6
Continuous
 62
     7
370
     0
100
AcDbLine
 10
392.1491700602
 20
412.8133613304
 30
0.0
 11
392.1491700602
 21
401.2462125848
 31
0.0
  0
LINE
  5
110
330
109
100
AcDbEntity
  8
0
  6
Continuous
 62
     7
370
     0
100
AcDbLine
 10
316.1491700602
 20
404.4212125848
 30
0.0
 11
354.3582791387
 21
404.4212125848
 31
0.0
  0
LINE
  5
111
330
109
100
AcDbEntity
  8
0
  6
Continuous
 62
     7
370
     0
100
AcDbLine
 10
392.1491700602
 20
404.4212125848
 30
0.0
 11
364.9151539354
 21
404.4212125848
 31
0.0
  0
MTEXT
  5
112
330
109
100
AcDbEntity
  8
0
  6
Continuous
 62
     7
370
    18
100
AcDbMText
 10
354.3582791387
 20
405.9938466821
 30
0.0
 40
3.175
 41
0.0
 71
     1
 72
     1
  1
76.00
  7
SLDTEXTSTYLE0
 73
     1
 44
1.0
  0
ENDBLK
  5
10B
330
109
100
AcDbEntity
  8
0
100
AcDbBlockEnd
  0
BLOCK
  5
115
330
114
100
AcDbEntity
  8
0
100
AcDbBlockBegin
  2
_D_6
 70
     0
 10
0.0
 20
0.0
 30
0.0
  3
_D_6
  1

  0
SOLID
  5
117
330
114
100
AcDbEntity
  8
0
  6
Continuous
 62
     7
370
    18
100
AcDbTrace
 10
-174.0
 20
-20.251426966
 30
0.0
 11
-170.698
 21
-20.759426966
 31
0.0
 12
-170.698
 22
-19.743426966
 32
0.0
 13
-170.698
 23
-19.743426966
 33
0.0
  0
SOLID
  5
118
330
114
100
AcDbEntity
  8
0
  6
Continuous
 62
     7
370
    18
100
AcDbTrace
 10
-102.0
 20
-20.251426966
 30
0.0
 11
-105.302
 21
-19.743426966
 31
0.0
 12
-105.302
 22
-20.759426966
 32
0.0
 13
-105.302
 23
-20.759426966
 33
0.0
  0
LINE
  5
119
330
114
100
AcDbEntity
  8
0
  6
Continuous
 62
     7
370
     0
100
AcDbLine
 10
-174.0
 20
-6.77
 30
0.0
 11
-174.0
 21
-23.426426966
 31
0.0
  0
LINE
  5
11A
330
114
100
AcDbEntity
  8
0
  6
Continuous
 62
     7
370
     0
100
AcDbLine
 10
-102.0
 20
-6.77
 30
0.0
 11
-102.0
 21
-23.426426966
 31
0.0
  0
LINE
  5
11B
330
114
100
AcDbEntity
  8
0
  6
Continuous
 62
     7
370
     0
100
AcDbLine
 10
-174.0
 20
-20.251426966
 30
0.0
 11
-144.7681014262
 21
-20.251426966
 31
0.0
  0
LINE
  5
11C
330
114
100
AcDbEntity
  8
0
  6
Continuous
 62
     7
370
     0
100
AcDbLine
 10
-102.0
 20
-20.251426966
 30
0.0
 11
-134.2112266294
 21
-20.251426966
 31
0.0
  0
MTEXT
  5
11D
330
114
100
AcDbEntity
  8
0
  6
Continuous
 62
     7
370
    18
100
AcDbMText
 10
-144.7681014262
 20
-18.6787928687
 30
0.0
 40
3.175
 41
0.0
 71
     1
 72
     1
  1
72.00
  7
SLDTEXTSTYLE0
 73
     1
 44
1.0
  0
ENDBLK
  5
116
330
114
100
AcDbEntity
  8
0
100
AcDbBlockEnd
  0
BLOCK
  5
120
330
11F
100
AcDbEntity
  8
0
100
AcDbBlockBegin
  2
_D_7
 70
     0
 10
0.0
 20
0.0
 30
0.0
  3
_D_7
  1

  0
SOLID
  5
122
330
11F
100
AcDbEntity
  8
0
  6
Continuous
 62
     7
370
    18
100
AcDbTrace
 10
-102.0
 20
-28.2778612384
 30
0.0
 11
-98.698
 21
-28.7858612384
 31
0.0
 12
-98.698
 22
-27.7698612384
 32
0.0
 13
-98.698
 23
-27.7698612384
 33
0.0
  0
SOLID
  5
123
330
11F
100
AcDbEntity
  8
0
  6
Continuous
 62
     7
370
    18
100
AcDbTrace
 10
98.0
 20
-28.2778612384
 30
0.0
 11
94.698
 21
-27.7698612384
 31
0.0
 12
94.698
 22
-28.7858612384
 32
0.0
 13
94.698
 23
-28.7858612384
 33
0.0
  0
LINE
  5
124
330
11F
100
AcDbEntity
  8
0
  6
Continuous
 62
     7
370
     0
100
AcDbLine
 10
-102.0
 20
-10.77
 30
0.0
 11
-102.0
 21
-31.4528612384
 31
0.0
  0
LINE
  5
125
330
11F
100
AcDbEntity
  8
0
  6
Continuous
 62
     7
370
     0
100
AcDbLine
 10
98.0
 20
-10.77
 30
0.0
 11
98.0
 21
-31.4528612384
 31
0.0
  0
LINE
  5
126
330
11F
100
AcDbEntity
  8
0
  6
Continuous
 62
     7
370
     0
100
AcDbLine
 10
-102.0
 20
-28.2778612384
 30
0.0
 11
-27.224448641
 21
-28.2778612384
 31
0.0
  0
LINE
  5
127
330
11F
100
AcDbEntity
  8
0
  6
Continuous
 62
     7
370
     0
100
AcDbLine
 10
98.0
 20
-28.2778612384
 30
0.0
 11
-14.3216020811
 21
-28.2778612384
 31
0.0
  0
MTEXT
  5
128
330
11F
100
AcDbEntity
  8
0
  6
Continuous
 62
     7
370
    18
100
AcDbMText
 10
-27.224448641
 20
-26.7052271412
 30
0.0
 40
3.175
 41
0.0
 71
     1
 72
     1
  1
200.00
  7
SLDTEXTSTYLE0
 73
     1
 44
1.0
  0
ENDBLK
  5
121
330
11F
100
AcDbEntity
  8
0
100
AcDbBlockEnd
  0
BLOCK
  5
12B
330
12A
100
AcDbEntity
  8
0
100
AcDbBlockBegin
  2
_D_8
 70
     0
 10
0.0
 20
0.0
 30
0.0
  3
_D_8
  1

  0
SOLID
  5
12D
330
12A
100
AcDbEntity
  8
0
  6
Continuous
 62
     7
370
    18
100
AcDbTrace
 10
98.0
 20
-15.1621487455
 30
0.0
 11
101.302
 21
-15.6701487455
 31
0.0
 12
101.302
 22
-14.6541487455
 32
0.0
 13
101.302
 23
-14.6541487455
 33
0.0
  0
SOLID
  5
12E
330
12A
100
AcDbEntity
  8
0
  6
Continuous
 62
     7
370
    18
100
AcDbTrace
 10
174.0
 20
-15.1621487455
 30
0.0
 11
170.698
 21
-14.6541487455
 31
0.0
 12
170.698
 22
-15.6701487455
 32
0.0
 13
170.698
 23
-15.6701487455
 33
0.0
  0
LINE
  5
12F
330
12A
100
AcDbEntity
  8
0
  6
Continuous
 62
     7
370
     0
100
AcDbLine
 10
98.0
 20
-6.77
 30
0.0
 11
98.0
 21
-18.3371487455
 31
0.0
  0
LINE
  5
130
330
12A
100
AcDbEntity
  8
0
  6
Continuous
 62
     7
370
     0
100
AcDbLine
 10
174.0
 20
-6.77
 30
0.0
 11
174.0
 21
-18.3371487455
 31
0.0
  0
LINE
  5
131
330
12A
100
AcDbEntity
  8
0
  6
Continuous
 62
     7
370
     0
100
AcDbLine
 10
98.0
 20
-15.1621487455
 30
0.0
 11
136.2091090784
 21
-15.1621487455
 31
0.0
  0
LINE
  5
132
330
12A
100
AcDbEntity
  8
0
  6
Continuous
 62
     7
370
     0
100
AcDbLine
 10
174.0
 20
-15.1621487455
 30
0.0
 11
146.7659838752
 21
-15.1621487455
 31
0.0
  0
MTEXT
  5
133
330
12A
100
AcDbEntity
  8
0
  6
Continuous
 62
     7
370
    18
100
AcDbMText
 10
136.2091090784
 20
-13.5895146483
 30
0.0
 40
3.175
 41
0.0
 71
     1
 72
     1
  1
76.00
  7
SLDTEXTSTYLE0
 73
     1
 44
1.0
  0
ENDBLK
  5
12C
330
12A
100
AcDbEntity
  8
0
100
AcDbBlockEnd
  0
BLOCK
  5
136
330
135
100
AcDbEntity
  8
0
100
AcDbBlockBegin
  2
_D_9
 70
     0
 10
0.0
 20
0.0
 30
0.0
  3
_D_9
  1

  0
SOLID
  5
138
330
135
100
AcDbEntity
  8
0
  6
Continuous
 62
     7
370
    18
100
AcDbTrace
 10
-174.0
 20
-20.251426966
 30
0.0
 11
-170.698
 21
-20.759426966
 31
0.0
 12
-170.698
 22
-19.743426966
 32
0.0
 13
-170.698
 23
-19.743426966
 33
0.0
  0
SOLID
  5
139
330
135
100
AcDbEntity
  8
0
  6
Continuous
 62
     7
370
    18
100
AcDbTrace
 10
-102.0
 20
-20.251426966
 30
0.0
 11
-105.302
 21
-19.743426966
 31
0.0
 12
-105.302
 22
-20.759426966
 32
0.0
 13
-105.302
 23
-20.759426966
 33
0.0
  0
LINE
  5
13A
330
135
100
AcDbEntity
  8
0
  6
Continuous
 62
     7
370
     0
100
AcDbLine
 10
-174.0
 20
-6.77
 30
0.0
 11
-174.0
 21
-23.426426966
 31
0.0
  0
LINE
  5
13B
330
135
100
AcDbEntity
  8
0
  6
Continuous
 62
     7
370
     0
100
AcDbLine
 10
-102.0
 20
-6.77
 30
0.0
 11
-102.0
 21
-23.426426966
 31
0.0
  0
LINE
  5
13C
330
135
100
AcDbEntity
  8
0
  6
Continuous
 62
     7
370
     0
100
AcDbLine
 10
-174.0
 20
-20.251426966
 30
0.0
 11
-144.7681014262
 21
-20.251426966
 31
0.0
  0
LINE
  5
13D
330
135
100
AcDbEntity
  8
0
  6
Continuous
 62
     7
370
     0
100
AcDbLine
 10
-102.0
 20
-20.251426966
 30
0.0
 11
-134.2112266294
 21
-20.251426966
 31
0.0
  0
MTEXT
  5
13E
330
135
100
AcDbEntity
  8
0
  6
Continuous
 62
     7
370
    18
100
AcDbMText
 10
-144.7681014262
 20
-18.6787928687
 30
0.0
 40
3.175
 41
0.0
 71
     1
 72
     1
  1
72.00
  7
SLDTEXTSTYLE0
 73
     1
 44
1.0
  0
ENDBLK
  5
137
330
135
100
AcDbEntity
  8
0
100
AcDbBlockEnd
  0
BLOCK
  5
141
330
140
100
AcDbEntity
  8
0
100
AcDbBlockBegin
  2
_D_10
 70
     0
 10
0.0
 20
0.0
 30
0.0
  3
_D_10
  1

  0
SOLID
  5
143
330
140
100
AcDbEntity
  8
0
  6
Continuous
 62
     7
370
    18
100
AcDbTrace
 10
-102.0
 20
-28.2778612384
 30
0.0
 11
-98.698
 21
-28.7858612384
 31
0.0
 12
-98.698
 22
-27.7698612384
 32
0.0
 13
-98.698
 23
-27.7698612384
 33
0.0
  0
SOLID
  5
144
330
140
100
AcDbEntity
  8
0
  6
Continuous
 62
     7
370
    18
100
AcDbTrace
 10
98.0
 20
-28.2778612384
 30
0.0
 11
94.698
 21
-27.7698612384
 31
0.0
 12
94.698
 22
-28.7858612384
 32
0.0
 13
94.698
 23
-28.7858612384
 33
0.0
  0
LINE
  5
145
330
140
100
AcDbEntity
  8
0
  6
Continuous
 62
     7
370
     0
100
AcDbLine
 10
-102.0
 20
-10.77
 30
0.0
 11
-102.0
 21
-31.4528612384
 31
0.0
  0
LINE
  5
146
330
140
100
AcDbEntity
  8
0
  6
Continuous
 62
     7
370
     0
100
AcDbLine
 10
98.0
 20
-10.77
 30
0.0
 11
98.0
 21
-31.4528612384
 31
0.0
  0
LINE
  5
147
330
140
100
AcDbEntity
  8
0
  6
Continuous
 62
     7
370
     0
100
AcDbLine
 10
-102.0
 20
-28.2778612384
 30
0.0
 11
-27.224448641
 21
-28.2778612384
 31
0.0
  0
LINE
  5
148
330
140
100
AcDbEntity
  8
0
  6
Continuous
 62
     7
370
     0
100
AcDbLine
 10
98.0
 20
-28.2778612384
 30
0.0
 11
-14.3216020811
 21
-28.2778612384
 31
0.0
  0
MTEXT
  5
149
330
140
100
AcDbEntity
  8
0
  6
Continuous
 62
     7
370
    18
100
AcDbMText
 10
-27.224448641
 20
-26.7052271412
 30
0.0
 40
3.175
 41
0.0
 71
     1
 72
     1
  1
200.00
  7
SLDTEXTSTYLE0
 73
     1
 44
1.0
  0
ENDBLK
  5
142
330
140
100
AcDbEntity
  8
0
100
AcDbBlockEnd
  0
BLOCK
  5
14C
330
14B
100
AcDbEntity
  8
0
100
AcDbBlockBegin
  2
_D_11
 70
     0
 10
0.0
 20
0.0
 30
0.0
  3
_D_11
  1

  0
SOLID
  5
14E
330
14B
100
AcDbEntity
  8
0
  6
Continuous
 62
     7
370
    18
100
AcDbTrace
 10
98.0
 20
-15.1621487455
 30
0.0
 11
101.302
 21
-15.6701487455
 31
0.0
 12
101.302
 22
-14.6541487455
 32
0.0
 13
101.302
 23
-14.6541487455
 33
0.0
  0
SOLID
  5
14F
330
14B
100
AcDbEntity
  8
0
  6
Continuous
 62
     7
370
    18
100
AcDbTrace
 10
174.0
 20
-15.1621487455
 30
0.0
 11
170.698
 21
-14.6541487455
 31
0.0
 12
170.698
 22
-15.6701487455
 32
0.0
 13
170.698
 23
-15.6701487455
 33
0.0
  0
LINE
  5
150
330
14B
100
AcDbEntity
  8
0
  6
Continuous
 62
     7
370
     0
100
AcDbLine
 10
98.0
 20
-6.77
 30
0.0
 11
98.0
 21
-18.3371487455
 31
0.0
  0
LINE
  5
151
330
14B
100
AcDbEntity
  8
0
  6
Continuous
 62
     7
370
     0
100
AcDbLine
 10
174.0
 20
-6.77
 30
0.0
 11
174.0
 21
-18.3371487455
 31
0.0
  0
LINE
  5
152
330
14B
100
AcDbEntity
  8
0
  6
Continuous
 62
     7
370
     0
100
AcDbLine
 10
98.0
 20
-15.1621487455
 30
0.0
 11
136.2091090784
 21
-15.1621487455
 31
0.0
  0
LINE
  5
153
330
14B
100
AcDbEntity
  8
0
  6
Continuous
 62
     7
370
     0
100
AcDbLine
 10
174.0
 20
-15.1621487455
 30
0.0
 11
146.7659838752
 21
-15.1621487455
 31
0.0
  0
MTEXT
  5
154
330
14B
100
AcDbEntity
  8
0
  6
Continuous
 62
     7
370
    18
100
AcDbMText
 10
136.2091090784
 20
-13.5895146483
 30
0.0
 40
3.175
 41
0.0
 71
     1
 72
     1
  1
76.00
  7
SLDTEXTSTYLE0
 73
     1
 44
1.0
  0
ENDBLK
  5
14D
330
14B
100
AcDbEntity
  8
0
100
AcDbBlockEnd
  0
BLOCK
  5
157
330
156
100
AcDbEntity
  8
0
100
AcDbBlockBegin
  2
_D_12
 70
     0
 10
0.0
 20
0.0
 30
0.0
  3
_D_12
  1

  0
SOLID
  5
159
330
156
100
AcDbEntity
  8
0
  6
Continuous
 62
     7
370
    18
100
AcDbTrace
 10
47.9755876729
 20
299.3389189685
 30
0.0
 11
51.2775876729
 21
298.8309189685
 31
0.0
 12
51.2775876729
 22
299.8469189685
 32
0.0
 13
51.2775876729
 23
299.8469189685
 33
0.0
  0
SOLID
  5
15A
330
156
100
AcDbEntity
  8
0
  6
Continuous
 62
     7
370
    18
100
AcDbTrace
 10
119.9755876729
 20
299.3389189685
 30
0.0
 11
116.6735876729
 21
299.8469189685
 31
0.0
 12
116.6735876729
 22
298.8309189685
 32
0.0
 13
116.6735876729
 23
298.8309189685
 33
0.0
  0
LINE
  5
15B
330
156
100
AcDbEntity
  8
0
  6
Continuous
 62
     7
370
     0
100
AcDbLine
 10
47.9755876729
 20
312.8203459344
 30
0.0
 11
47.9755876729
 21
296.1639189685
 31
0.0
  0
LINE
  5
15C
330
156
100
AcDbEntity
  8
0
  6
Continuous
 62
     7
370
     0
100
AcDbLine
 10
119.9755876729
 20
312.8203459344
 30
0.0
 11
119.9755876729
 21
296.1639189685
 31
0.0
  0
LINE
  5
15D
330
156
100
AcDbEntity
  8
0
  6
Continuous
 62
     7
370
     0
100
AcDbLine
 10
47.9755876729
 20
299.3389189685
 30
0.0
 11
77.2074862467
 21
299.3389189685
 31
0.0
  0
LINE
  5
15E
330
156
100
AcDbEntity
  8
0
  6
Continuous
 62
     7
370
     0
100
AcDbLine
 10
119.9755876729
 20
299.3389189685
 30
0.0
 11
87.7643610434
 21
299.3389189685
 31
0.0
  0
MTEXT
  5
15F
330
156
100
AcDbEntity
  8
0
  6
Continuous
 62
     7
370
    18
100
AcDbMText
 10
77.2074862467
 20
300.9115530657
 30
0.0
 40
3.175
 41
0.0
 71
     1
 72
     1
  1
72.00
  7
SLDTEXTSTYLE0
 73
     1
 44
1.0
  0
ENDBLK
  5
158
330
156
100
AcDbEntity
  8
0
100
AcDbBlockEnd
  0
BLOCK
  5
162
330
161
100
AcDbEntity
  8
0
100
AcDbBlockBegin
  2
_D_13
 70
     0
 10
0.0
 20
0.0
 30
0.0
  3
_D_13
  1

  0
SOLID
  5
164
330
161
100
AcDbEntity
  8
0
  6
Continuous
 62
     7
370
    18
100
AcDbTrace
 10
119.9755876729
 20
291.312484696
 30
0.0
 11
123.2775876729
 21
290.804484696
 31
0.0
 12
123.2775876729
 22
291.820484696
 32
0.0
 13
123.2775876729
 23
291.820484696
 33
0.0
  0
SOLID
  5
165
330
161
100
AcDbEntity
  8
0
  6
Continuous
 62
     7
370
    18
100
AcDbTrace
 10
319.9755876729
 20
291.312484696
 30
0.0
 11
316.6735876729
 21
291.820484696
 31
0.0
 12
316.6735876729
 22
290.804484696
 32
0.0
 13
316.6735876729
 23
290.804484696
 33
0.0
  0
LINE
  5
166
330
161
100
AcDbEntity
  8
0
  6
Continuous
 62
     7
370
     0
100
AcDbLine
 10
119.9755876729
 20
308.8203459344
 30
0.0
 11
119.9755876729
 21
288.137484696
 31
0.0
  0
LINE
  5
167
330
161
100
AcDbEntity
  8
0
  6
Continuous
 62
     7
370
     0
100
AcDbLine
 10
319.9755876729
 20
308.8203459344
 30
0.0
 11
319.9755876729
 21
288.137484696
 31
0.0
  0
LINE
  5
168
330
161
100
AcDbEntity
  8
0
  6
Continuous
 62
     7
370
     0
100
AcDbLine
 10
119.9755876729
 20
291.312484696
 30
0.0
 11
194.7511390318
 21
291.312484696
 31
0.0
  0
LINE
  5
169
330
161
100
AcDbEntity
  8
0
  6
Continuous
 62
     7
370
     0
100
AcDbLine
 10
319.9755876729
 20
291.312484696
 30
0.0
 11
207.6539855917
 21
291.312484696
 31
0.0
  0
MTEXT
  5
16A
330
161
100
AcDbEntity
  8
0
  6
Continuous
 62
     7
370
    18
100
AcDbMText
 10
194.7511390318
 20
292.8851187933
 30
0.0
 40
3.175
 41
0.0
 71
     1
 72
     1
  1
200.00
  7
SLDTEXTSTYLE0
 73
     1
 44
1.0
  0
ENDBLK
  5
163
330
161
100
AcDbEntity
  8
0
100
AcDbBlockEnd
  0
BLOCK
  5
16D
330
16C
100
AcDbEntity
  8
0
100
AcDbBlockBegin
  2
_D_14
 70
     0
 10
0.0
 20
0.0
 30
0.0
  3
_D_14
  1

  0
SOLID
  5
16F
330
16C
100
AcDbEntity
  8
0
  6
Continuous
 62
     7
370
    18
100
AcDbTrace
 10
319.9755876729
 20
304.4281971889
 30
0.0
 11
323.2775876729
 21
303.9201971889
 31
0.0
 12
323.2775876729
 22
304.9361971889
 32
0.0
 13
323.2775876729
 23
304.9361971889
 33
0.0
  0
SOLID
  5
170
330
16C
100
AcDbEntity
  8
0
  6
Continuous
 62
     7
370
    18
100
AcDbTrace
 10
395.9755876729
 20
304.4281971889
 30
0.0
 11
392.6735876729
 21
304.9361971889
 31
0.0
 12
392.6735876729
 22
303.9201971889
 32
0.0
 13
392.6735876729
 23
303.9201971889
 33
0.0
  0
LINE
  5
171
330
16C
100
AcDbEntity
  8
0
  6
Continuous
 62
     7
370
     0
100
AcDbLine
 10
319.9755876729
 20
312.8203459344
 30
0.0
 11
319.9755876729
 21
301.2531971889
 31
0.0
  0
LINE
  5
172
330
16C
100
AcDbEntity
  8
0
  6
Continuous
 62
     7
370
     0
100
AcDbLine
 10
395.9755876729
 20
312.8203459344
 30
0.0
 11
395.9755876729
 21
301.2531971889
 31
0.0
  0
LINE
  5
173
330
16C
100
AcDbEntity
  8
0
  6
Continuous
 62
     7
370
     0
100
AcDbLine
 10
319.9755876729
 20
304.4281971889
 30
0.0
 11
358.1846967513
 21
304.4281971889
 31
0.0
  0
LINE
  5
174
330
16C
100
AcDbEntity
  8
0
  6
Continuous
 62
     7
370
     0
100
AcDbLine
 10
395.9755876729
 20
304.4281971889
 30
0.0
 11
368.741571548
 21
304.4281971889
 31
0.0
  0
MTEXT
  5
175
330
16C
100
AcDbEntity
  8
0
  6
Continuous
 62
     7
370
    18
100
AcDbMText
 10
358.1846967513
 20
306.0008312861
 30
0.0
 40
3.175
 41
0.0
 71
     1
 72
     1
  1
76.00
  7
SLDTEXTSTYLE0
 73
     1
 44
1.0
  0
ENDBLK
  5
16E
330
16C
100
AcDbEntity
  8
0
100
AcDbBlockEnd
  0
BLOCK
  5
178
330
177
100
AcDbEntity
  8
0
100
AcDbBlockBegin
  2
_D_15
 70
     0
 10
0.0
 20
0.0
 30
0.0
  3
_D_15
  1

  0
SOLID
  5
17A
330
177
100
AcDbEntity
  8
0
  6
Continuous
 62
     7
370
    18
100
AcDbTrace
 10
46.2173142965
 20
219.8298128009
 30
0.0
 11
49.5193142965
 21
219.3218128009
 31
0.0
 12
49.5193142965
 22
220.3378128009
 32
0.0
 13
49.5193142965
 23
220.3378128009
 33
0.0
  0
SOLID
  5
17B
330
177
100
AcDbEntity
  8
0
  6
Continuous
 62
     7
370
    18
100
AcDbTrace
 10
118.2173142965
 20
219.8298128009
 30
0.0
 11
114.9153142965
 21
220.3378128009
 31
0.0
 12
114.9153142965
 22
219.3218128009
 32
0.0
 13
114.9153142965
 23
219.3218128009
 33
0.0
  0
LINE
  5
17C
330
177
100
AcDbEntity
  8
0
  6
Continuous
 62
     7
370
     0
100
AcDbLine
 10
46.2173142965
 20
233.3112397668
 30
0.0
 11
46.2173142965
 21
216.6548128009
 31
0.0
  0
LINE
  5
17D
330
177
100
AcDbEntity
  8
0
  6
Continuous
 62
     7
370
     0
100
AcDbLine
 10
118.2173142965
 20
233.3112397668
 30
0.0
 11
118.2173142965
 21
216.6548128009
 31
0.0
  0
LINE
  5
17E
330
177
100
AcDbEntity
  8
0
  6
Continuous
 62
     7
370
     0
100
AcDbLine
 10
46.2173142965
 20
219.8298128009
 30
0.0
 11
75.4492128704
 21
219.8298128009
 31
0.0
  0
LINE
  5
17F
330
177
100
AcDbEntity
  8
0
  6
Continuous
 62
     7
370
     0
100
AcDbLine
 10
118.2173142965
 20
219.8298128009
 30
0.0
 11
86.0060876671
 21
219.8298128009
 31
0.0
  0
MTEXT
  5
180
330
177
100
AcDbEntity
  8
0
  6
Continuous
 62
     7
370
    18
100
AcDbMText
 10
75.4492128704
 20
221.4024468981
 30
0.0
 40
3.175
 41
0.0
 71
     1
 72
     1
  1
72.00
  7
SLDTEXTSTYLE0
 73
     1
 44
1.0
  0
ENDBLK
  5
179
330
177
100
AcDbEntity
  8
0
100
AcDbBlockEnd
  0
BLOCK
  5
183
330
182
100
AcDbEntity
  8
0
100
AcDbBlockBegin
  2
_D_16
 70
     0
 10
0.0
 20
0.0
 30
0.0
  3
_D_16
  1

  0
SOLID
  5
185
330
182
100
AcDbEntity
  8
0
  6
Continuous
 62
     7
370
    18
100
AcDbTrace
 10
118.2173142965
 20
211.8033785284
 30
0.0
 11
121.5193142965
 21
211.2953785284
 31
0.0
 12
121.5193142965
 22
212.3113785284
 32
0.0
 13
121.5193142965
 23
212.3113785284
 33
0.0
  0
SOLID
  5
186
330
182
100
AcDbEntity
  8
0
  6
Continuous
 62
     7
370
    18
100
AcDbTrace
 10
318.2173142965
 20
211.8033785284
 30
0.0
 11
314.9153142965
 21
212.3113785284
 31
0.0
 12
314.9153142965
 22
211.2953785284
 32
0.0
 13
314.9153142965
 23
211.2953785284
 33
0.0
  0
LINE
  5
187
330
182
100
AcDbEntity
  8
0
  6
Continuous
 62
     7
370
     0
100
AcDbLine
 10
118.2173142965
 20
229.3112397668
 30
0.0
 11
118.2173142965
 21
208.6283785284
 31
0.0
  0
LINE
  5
188
330
182
100
AcDbEntity
  8
0
  6
Continuous
 62
     7
370
     0
100
AcDbLine
 10
318.2173142965
 20
229.3112397668
 30
0.0
 11
318.2173142965
 21
208.6283785284
 31
0.0
  0
LINE
  5
189
330
182
100
AcDbEntity
  8
0
  6
Continuous
 62
     7
370
     0
100
AcDbLine
 10
118.2173142965
 20
211.8033785284
 30
0.0
 11
192.9928656555
 21
211.8033785284
 31
0.0
  0
LINE
  5
18A
330
182
100
AcDbEntity
  8
0
  6
Continuous
 62
     7
370
     0
100
AcDbLine
 10
318.2173142965
 20
211.8033785284
 30
0.0
 11
205.8957122154
 21
211.8033785284
 31
0.0
  0
MTEXT
  5
18B
330
182
100
AcDbEntity
  8
0
  6
Continuous
 62
     7
370
    18
100
AcDbMText
 10
192.9928656555
 20
213.3760126257
 30
0.0
 40
3.175
 41
0.0
 71
     1
 72
     1
  1
200.00
  7
SLDTEXTSTYLE0
 73
     1
 44
1.0
  0
ENDBLK
  5
184
330
182
100
AcDbEntity
  8
0
100
AcDbBlockEnd
  0
BLOCK
  5
18E
330
18D
100
AcDbEntity
  8
0
100
AcDbBlockBegin
  2
_D_17
 70
     0
 10
0.0
 20
0.0
 30
0.0
  3
_D_17
  1

  0
SOLID
  5
190
330
18D
100
AcDbEntity
  8
0
  6
Continuous
 62
     7
370
    18
100
AcDbTrace
 10
318.2173142965
 20
224.9190910213
 30
0.0
 11
321.5193142965
 21
224.4110910213
 31
0.0
 12
321.5193142965
 22
225.4270910213
 32
0.0
 13
321.5193142965
 23
225.4270910213
 33
0.0
  0
SOLID
  5
191
330
18D
100
AcDbEntity
  8
0
  6
Continuous
 62
     7
370
    18
100
AcDbTrace
 10
394.2173142965
 20
224.9190910213
 30
0.0
 11
390.9153142965
 21
225.4270910213
 31
0.0
 12
390.9153142965
 22
224.4110910213
 32
0.0
 13
390.9153142965
 23
224.4110910213
 33
0.0
  0
LINE
  5
192
330
18D
100
AcDbEntity
  8
0
  6
Continuous
 62
     7
370
     0
100
AcDbLine
 10
318.2173142965
 20
233.3112397668
 30
0.0
 11
318.2173142965
 21
221.7440910213
 31
0.0
  0
LINE
  5
193
330
18D
100
AcDbEntity
  8
0
  6
Continuous
 62
     7
370
     0
100
AcDbLine
 10
394.2173142965
 20
233.3112397668
 30
0.0
 11
394.2173142965
 21
221.7440910213
 31
0.0
  0
LINE
  5
194
330
18D
100
AcDbEntity
  8
0
  6
Continuous
 62
     7
370
     0
100
AcDbLine
 10
318.2173142965
 20
224.9190910213
 30
0.0
 11
356.426423375
 21
224.9190910213
 31
0.0
  0
LINE
  5
195
330
18D
100
AcDbEntity
  8
0
  6
Continuous
 62
     7
370
     0
100
AcDbLine
 10
394.2173142965
 20
224.9190910213
 30
0.0
 11
366.9832981717
 21
224.9190910213
 31
0.0
  0
MTEXT
  5
196
330
18D
100
AcDbEntity
  8
0
  6
Continuous
 62
     7
370
    18
100
AcDbMText
 10
356.426423375
 20
226.4917251185
 30
0.0
 40
3.175
 41
0.0
 71
     1
 72
     1
  1
76.00
  7
SLDTEXTSTYLE0
 73
     1
 44
1.0
  0
ENDBLK
  5
18F
330
18D
100
AcDbEntity
  8
0
100
AcDbBlockEnd
  0
ENDSEC
  0
SECTION
  2
ENTITIES
  0
LINE
  5
63
330
1F
100
AcDbEntity
  8
0
  6
Continuous
 62
     7
370
    18
100
AcDbLine
 10
45.9074434366
 20
493.592467498
 30
0.0
 11
117.9074434366
 21
493.592467498
 31
0.0
  0
LINE
  5
64
330
1F
100
AcDbEntity
  8
0
  6
Continuous
 62
     7
370
    18
100
AcDbLine
 10
117.9074434366
 20
493.592467498
 30
0.0
 11
117.9074434366
 21
489.592467498
 31
0.0
  0
LINE
  5
65
330
1F
100
AcDbEntity
  8
0
  6
Continuous
 62
     7
370
    18
100
AcDbLine
 10
117.9074434366
 20
489.592467498
 30
0.0
 11
317.9074434366
 21
489.592467498
 31
0.0
  0
LINE
  5
66
330
1F
100
AcDbEntity
  8
0
  6
Continuous
 62
     7
370
    18
100
AcDbLine
 10
317.9074434366
 20
493.592467498
 30
0.0
 11
317.9074434366
 21
489.592467498
 31
0.0
  0
LINE
  5
67
330
1F
100
AcDbEntity
  8
0
  6
Continuous
 62
     7
370
    18
100
AcDbLine
 10
317.9074434366
 20
493.592467498
 30
0.0
 11
393.9074434366
 21
493.592467498
 31
0.0
  0
LINE
  5
68
330
1F
100
AcDbEntity
  8
0
  6
Continuous
 62
     7
370
    18
100
AcDbLine
 10
393.9074434366
 20
508.592467498
 30
0.0
 11
45.9074434366
 21
508.592467498
 31
0.0
  0
LINE
  5
69
330
1F
100
AcDbEntity
  8
0
  6
Continuous
 62
     7
370
    18
100
AcDbLine
 10
45.9074434366
 20
508.592467498
 30
0.0
 11
45.9074434366
 21
493.592467498
 31
0.0
  0
LINE
  5
6A
330
1F
100
AcDbEntity
  8
0
  6
Continuous
 62
     7
370
    18
100
AcDbLine
 10
393.9074434366
 20
508.592467498
 30
0.0
 11
393.9074434366
 21
493.592467498
 31
0.0
  0
LINE
  5
6B
330
1F
100
AcDbEntity
  8
0
  6
Continuous
 62
     7
370
    18
100
AcDbLine
 10
44.1491700602
 20
414.0833613304
 30
0.0
 11
116.1491700602
 21
414.0833613304
 31
0.0
  0
LINE
  5
6C
330
1F
100
AcDbEntity
  8
0
  6
Continuous
 62
     7
370
    18
100
AcDbLine
 10
116.1491700602
 20
414.0833613304
 30
0.0
 11
116.1491700602
 21
410.0833613304
 31
0.0
  0
LINE
  5
6D
330
1F
100
AcDbEntity
  8
0
  6
Continuous
 62
     7
370
    18
100
AcDbLine
 10
116.1491700602
 20
410.0833613304
 30
0.0
 11
316.1491700602
 21
410.0833613304
 31
0.0
  0
LINE
  5
6E
330
1F
100
AcDbEntity
  8
0
  6
Continuous
 62
     7
370
    18
100
AcDbLine
 10
316.1491700602
 20
414.0833613304
 30
0.0
 11
316.1491700602
 21
410.0833613304
 31
0.0
  0
LINE
  5
6F
330
1F
100
AcDbEntity
  8
0
  6
Continuous
 62
     7
370
    18
100
AcDbLine
 10
316.1491700602
 20
414.0833613304
 30
0.0
 11
392.1491700602
 21
414.0833613304
 31
0.0
  0
LINE
  5
70
330
1F
100
AcDbEntity
  8
0
  6
Continuous
 62
     7
370
    18
100
AcDbLine
 10
392.1491700602
 20
429.0833613304
 30
0.0
 11
44.1491700602
 21
429.0833613304
 31
0.0
  0
LINE
  5
71
330
1F
100
AcDbEntity
  8
0
  6
Continuous
 62
     7
370
    18
100
AcDbLine
 10
44.1491700602
 20
429.0833613304
 30
0.0
 11
44.1491700602
 21
414.0833613304
 31
0.0
  0
LINE
  5
72
330
1F
100
AcDbEntity
  8
0
  6
Continuous
 62
     7
370
    18
100
AcDbLine
 10
-174.0
 20
-5.5
 30
0.0
 11
-102.0
 21
-5.5
 31
0.0
  0
LINE
  5
73
330
1F
100
AcDbEntity
  8
0
  6
Continuous
 62
     7
370
    18
100
AcDbLine
 10
-102.0
 20
-5.5
 30
0.0
 11
-102.0
 21
-9.5
 31
0.0
  0
LINE
  5
74
330
1F
100
AcDbEntity
  8
0
  6
Continuous
 62
     7
370
    18
100
AcDbLine
 10
-102.0
 20
-9.5
 30
0.0
 11
98.0
 21
-9.5
 31
0.0
  0
LINE
  5
75
330
1F
100
AcDbEntity
  8
0
  6
Continuous
 62
     7
370
    18
100
AcDbLine
 10
98.0
 20
-5.5
 30
0.0
 11
98.0
 21
-9.5
 31
0.0
  0
LINE
  5
76
330
1F
100
AcDbEntity
  8
0
  6
Continuous
 62
     7
370
    18
100
AcDbLine
 10
98.0
 20
-5.5
 30
0.0
 11
174.0
 21
-5.5
 31
0.0
  0
LINE
  5
77
330
1F
100
AcDbEntity
  8
0
  6
Continuous
 62
     7
370
    18
100
AcDbLine
 10
174.0
 20
9.5
 30
0.0
 11
-174.0
 21
9.5
 31
0.0
  0
LINE
  5
78
330
1F
100
AcDbEntity
  8
0
  6
Continuous
 62
     7
370
    18
100
AcDbLine
 10
-174.0
 20
9.5
 30
0.0
 11
-174.0
 21
-5.5
 31
0.0
  0
LINE
  5
79
330
1F
100
AcDbEntity
  8
0
  6
Continuous
 62
     7
370
    18
100
AcDbLine
 10
-174.0
 20
-5.5
 30
0.0
 11
-102.0
 21
-5.5
 31
0.0
  0
LINE
  5
7A
330
1F
100
AcDbEntity
  8
0
  6
Continuous
 62
     7
370
    18
100
AcDbLine
 10
-102.0
 20
-5.5
 30
0.0
 11
-102.0
 21
-9.5
 31
0.0
  0
LINE
  5
7B
330
1F
100
AcDbEntity
  8
0
  6
Continuous
 62
     7
370
    18
100
AcDbLine
 10
-102.0
 20
-9.5
 30
0.0
 11
98.0
 21
-9.5
 31
0.0
  0
LINE
  5
7C
330
1F
100
AcDbEntity
  8
0
  6
Continuous
 62
     7
370
    18
100
AcDbLine
 10
98.0
 20
-5.5
 30
0.0
 11
98.0
 21
-9.5
 31
0.0
  0
LINE
  5
7D
330
1F
100
AcDbEntity
  8
0
  6
Continuous
 62
     7
370
    18
100
AcDbLine
 10
98.0
 20
-5.5
 30
0.0
 11
174.0
 21
-5.5
 31
0.0
  0
LINE
  5
7E
330
1F
100
AcDbEntity
  8
0
  6
Continuous
 62
     7
370
    18
100
AcDbLine
 10
174.0
 20
9.5
 30
0.0
 11
-174.0
 21
9.5
 31
0.0
  0
LINE
  5
7F
330
1F
100
AcDbEntity
  8
0
  6
Continuous
 62
     7
370
    18
100
AcDbLine
 10
-174.0
 20
9.5
 30
0.0
 11
-174.0
 21
-5.5
 31
0.0
  0
LINE
  5
80
330
1F
100
AcDbEntity
  8
0
  6
Continuous
 62
     7
370
    18
100
AcDbLine
 10
392.1491700602
 20
429.0833613304
 30
0.0
 11
392.1491700602
 21
414.0833613304
 31
0.0
  0
LINE
  5
81
330
1F
100
AcDbEntity
  8
0
  6
Continuous
 62
     7
370
    18
100
AcDbLine
 10
47.9755876729
 20
314.0903459344
 30
0.0
 11
119.9755876729
 21
314.0903459344
 31
0.0
  0
LINE
  5
82
330
1F
100
AcDbEntity
  8
0
  6
Continuous
 62
     7
370
    18
100
AcDbLine
 10
119.9755876729
 20
314.0903459344
 30
0.0
 11
119.9755876729
 21
310.0903459344
 31
0.0
  0
LINE
  5
83
330
1F
100
AcDbEntity
  8
0
  6
Continuous
 62
     7
370
    18
100
AcDbLine
 10
119.9755876729
 20
310.0903459344
 30
0.0
 11
319.9755876729
 21
310.0903459344
 31
0.0
  0
LINE
  5
84
330
1F
100
AcDbEntity
  8
0
  6
Continuous
 62
     7
370
    18
100
AcDbLine
 10
319.9755876729
 20
314.0903459344
 30
0.0
 11
319.9755876729
 21
310.0903459344
 31
0.0
  0
LINE
  5
85
330
1F
100
AcDbEntity
  8
0
  6
Continuous
 62
     7
370
    18
100
AcDbLine
 10
319.9755876729
 20
314.0903459344
 30
0.0
 11
395.9755876729
 21
314.0903459344
 31
0.0
  0
LINE
  5
86
330
1F
100
AcDbEntity
  8
0
  6
Continuous
 62
     7
370
    18
100
AcDbLine
 10
395.9755876729
 20
329.0903459344
 30
0.0
 11
47.9755876729
 21
329.0903459344
 31
0.0
  0
LINE
  5
87
330
1F
100
AcDbEntity
  8
0
  6
Continuous
 62
     7
370
    18
100
AcDbLine
 10
47.9755876729
 20
329.0903459344
 30
0.0
 11
47.9755876729
 21
314.0903459344
 31
0.0
  0
LINE
  5
88
330
1F
100
AcDbEntity
  8
0
  6
Continuous
 62
     7
370
    18
100
AcDbLine
 10
395.9755876729
 20
329.0903459344
 30
0.0
 11
395.9755876729
 21
314.0903459344
 31
0.0
  0
LINE
  5
89
330
1F
100
AcDbEntity
  8
0
  6
Continuous
 62
     7
370
    18
100
AcDbLine
 10
46.2173142965
 20
234.5812397668
 30
0.0
 11
118.2173142965
 21
234.5812397668
 31
0.0
  0
LINE
  5
8A
330
1F
100
AcDbEntity
  8
0
  6
Continuous
 62
     7
370
    18
100
AcDbLine
 10
118.2173142965
 20
234.5812397668
 30
0.0
 11
118.2173142965
 21
230.5812397668
 31
0.0
  0
LINE
  5
8B
330
1F
100
AcDbEntity
  8
0
  6
Continuous
 62
     7
370
    18
100
AcDbLine
 10
118.2173142965
 20
230.5812397668
 30
0.0
 11
318.2173142965
 21
230.5812397668
 31
0.0
  0
LINE
  5
8C
330
1F
100
AcDbEntity
  8
0
  6
Continuous
 62
     7
370
    18
100
AcDbLine
 10
318.2173142965
 20
234.5812397668
 30
0.0
 11
318.2173142965
 21
230.5812397668
 31
0.0
  0
LINE
  5
8D
330
1F
100
AcDbEntity
  8
0
  6
Continuous
 62
     7
370
    18
100
AcDbLine
 10
318.2173142965
 20
234.5812397668
 30
0.0
 11
394.2173142965
 21
234.5812397668
 31
0.0
  0
LINE
  5
8E
330
1F
100
AcDbEntity
  8
0
  6
Continuous
 62
     7
370
    18
100
AcDbLine
 10
394.2173142965
 20
249.5812397668
 30
0.0
 11
46.2173142965
 21
249.5812397668
 31
0.0
  0
LINE
  5
8F
330
1F
100
AcDbEntity
  8
0
  6
Continuous
 62
     7
370
    18
100
AcDbLine
 10
46.2173142965
 20
249.5812397668
 30
0.0
 11
46.2173142965
 21
234.5812397668
 31
0.0
  0
LINE
  5
90
330
1F
100
AcDbEntity
  8
0
  6
Continuous
 62
     7
370
    18
100
AcDbLine
 10
394.2173142965
 20
249.5812397668
 30
0.0
 11
394.2173142965
 21
234.5812397668
 31
0.0
  0
LINE
  5
91
330
1F
100
AcDbEntity
  8
0
  6
Continuous
 62
     7
370
    18
100
AcDbLine
 10
702.7737310706
 20
12.7
 30
0.0
 11
702.7737310706
 21
62.5944383331
 31
0.0
  0
LINE
  5
92
330
1F
100
AcDbEntity
  8
0
  6
Continuous
 62
     7
370
    18
100
AcDbLine
 10
652.5541319701
 20
62.5944383331
 30
0.0
 11
850.9
 21
62.5944383331
 31
0.0
  0
LINE
  5
93
330
1F
100
AcDbEntity
  8
0
  6
Continuous
 62
     7
370
    18
100
AcDbLine
 10
737.7481386263
 20
62.5944383331
 30
0.0
 11
737.7481386263
 21
12.7
 31
0.0
  0
LINE
  5
94
330
1F
100
AcDbEntity
  8
0
  6
Continuous
 62
     7
370
    18
100
AcDbLine
 10
780.828512112
 20
62.5944383331
 30
0.0
 11
780.828512112
 21
12.7
 31
0.0
  0
LINE
  5
95
330
1F
100
AcDbEntity
  8
0
  6
Continuous
 62
     7
370
    18
100
AcDbLine
 10
780.828512112
 20
18.1073003199
 30
0.0
 11
850.9
 21
18.1073003199
 31
0.0
  0
LINE
  5
96
330
1F
100
AcDbEntity
  8
0
  6
Continuous
 62
     7
370
    18
100
AcDbLine
 10
780.828512112
 20
30.9845221033
 30
0.0
 11
850.9
 21
30.9845221033
 31
0.0
  0
LINE
  5
97
330
1F
100
AcDbEntity
  8
0
  6
Continuous
 62
     7
370
    18
100
AcDbLine
 10
780.828512112
 20
53.268808883
 30
0.0
 11
850.9
 21
53.268808883
 31
0.0
  0
LINE
  5
98
330
1F
100
AcDbEntity
  8
0
  6
Continuous
 62
     7
370
    18
100
AcDbLine
 10
790.8753486998
 20
30.9845221033
 30
0.0
 11
790.8753486998
 21
18.1073003199
 31
0.0
  0
LINE
  5
99
330
1F
100
AcDbEntity
  8
0
  6
Continuous
 62
     7
370
    18
100
AcDbLine
 10
801.7361795467
 20
18.1073003199
 30
0.0
 11
801.7361795467
 21
12.7
 31
0.0
  0
LINE
  5
9A
330
1F
100
AcDbEntity
  8
0
  6
Continuous
 62
     7
370
    18
100
AcDbLine
 10
836.3728434947
 20
30.9845221033
 30
0.0
 11
836.3728434947
 21
18.1073003199
 31
0.0
  0
LINE
  5
9B
330
1F
100
AcDbEntity
  8
0
  6
Continuous
 62
     7
370
    18
100
AcDbLine
 10
826.4227480427
 20
18.1073003199
 30
0.0
 11
826.4227480427
 21
12.7
 31
0.0
  0
LINE
  5
9C
330
1F
100
AcDbEntity
  8
0
  6
Continuous
 62
     7
370
    18
100
AcDbLine
 10
652.5541319701
 20
17.68538066
 30
0.0
 11
737.7481386263
 21
17.68538066
 31
0.0
  0
LINE
  5
9D
330
1F
100
AcDbEntity
  8
0
  6
Continuous
 62
     7
370
    18
100
AcDbLine
 10
737.7481386263
 20
48.3069383331
 30
0.0
 11
780.828512112
 21
48.3069383331
 31
0.0
  0
LINE
  5
9E
330
1F
100
AcDbEntity
  8
0
  6
Continuous
 62
     7
370
    18
100
AcDbLine
 10
737.7481386263
 20
53.0694383331
 30
0.0
 11
780.828512112
 21
53.0694383331
 31
0.0
  0
LINE
  5
9F
330
1F
100
AcDbEntity
  8
0
  6
Continuous
 62
     7
370
    18
100
AcDbLine
 10
737.7481386263
 20
57.8319383331
 30
0.0
 11
780.828512112
 21
57.8319383331
 31
0.0
  0
LINE
  5
A0
330
1F
100
AcDbEntity
  8
0
  6
Continuous
 62
     7
370
    18
100
AcDbLine
 10
780.828512112
 20
34.0194383331
 30
0.0
 11
737.8625895844
 21
34.0194383331
 31
0.0
  0
LINE
  5
A1
330
1F
100
AcDbEntity
  8
0
  6
Continuous
 62
     7
370
    18
100
AcDbLine
 10
768.6606683857
 20
62.5944383331
 30
0.0
 11
768.6606683857
 21
34.0194383331
 31
0.0
  0
LINE
  5
A2
330
1F
100
AcDbEntity
  8
0
  6
Continuous
 62
     7
370
    18
100
AcDbLine
 10
756.7600773885
 20
62.5944383331
 30
0.0
 11
756.7600773885
 21
34.0194383331
 31
0.0
  0
LINE
  5
A3
330
1F
100
AcDbEntity
  8
0
  6
Continuous
 62
     7
370
    18
100
AcDbLine
 10
702.7737310706
 20
24.4785733387
 30
0.0
 11
737.7481386263
 21
24.4785733387
 31
0.0
  0
LINE
  5
A4
330
1F
100
AcDbEntity
  8
0
  6
Continuous
 62
     7
370
    18
100
AcDbLine
 10
702.7737310706
 20
31.3365733387
 30
0.0
 11
737.8625895844
 21
31.3365733387
 31
0.0
  0
LINE
  5
A5
330
1F
100
AcDbEntity
  8
0
  6
Continuous
 62
     7
370
    18
100
AcDbLine
 10
652.5541319701
 20
12.7
 30
0.0
 11
652.5541319701
 21
62.5944383331
 31
0.0
  0
LINE
  5
A6
330
1F
100
AcDbEntity
  8
0
  6
Continuous
 62
     7
370
    18
100
AcDbLine
 10
652.5541319701
 20
30.8444383331
 30
0.0
 11
702.7737310706
 21
30.8444383331
 31
0.0
  0
LINE
  5
A7
330
1F
100
AcDbEntity
  8
0
  6
Continuous
 62
     7
370
    18
100
AcDbLine
 10
652.5541319701
 20
37.1944383331
 30
0.0
 11
702.7737310706
 21
37.1944383331
 31
0.0
  0
LINE
  5
A8
330
1F
100
AcDbEntity
  8
0
  6
Continuous
 62
     7
370
    18
100
AcDbLine
 10
652.5541319701
 20
43.5444383331
 30
0.0
 11
702.7737310706
 21
43.5444383331
 31
0.0
  0
LINE
  5
A9
330
1F
100
AcDbEntity
  8
0
  6
Continuous
 62
     7
370
    18
100
AcDbLine
 10
652.5541319701
 20
49.8944383331
 30
0.0
 11
702.7737310706
 21
49.8944383331
 31
0.0
  0
LINE
  5
AA
330
1F
100
AcDbEntity
  8
0
  6
Continuous
 62
     7
370
    18
100
AcDbLine
 10
677.9028272634
 20
62.5944383331
 30
0.0
 11
677.9028272634
 21
17.68538066
 31
0.0
  0
LINE
  5
AB
330
1F
100
AcDbEntity
  8
0
  6
Continuous
 62
     7
370
    18
100
AcDbLine
 10
737.7481386263
 20
58.6742077444
 30
0.0
 11
702.7737310706
 21
58.6742077444
 31
0.0
  0
LINE
  5
AC
330
1F
100
AcDbEntity
  8
0
  6
Continuous
 62
     7
370
    18
100
AcDbLine
 10
780.828512112
 20
43.5444383331
 30
0.0
 11
737.7481386263
 21
43.5444383331
 31
0.0
  0
LINE
  5
AD
330
1F
100
AcDbEntity
  8
0
  6
Continuous
 62
     7
370
    18
100
AcDbLine
 10
780.828512112
 20
38.7819383331
 30
0.0
 11
737.7481386263
 21
38.7819383331
 31
0.0
  0
LINE
  5
AE
330
1F
100
AcDbEntity
  8
0
  6
Continuous
 62
     7
370
    18
100
AcDbLine
 10
652.5541319701
 20
56.2444383331
 30
0.0
 11
702.7737310706
 21
56.2444383331
 31
0.0
  0
LINE
  5
AF
330
1F
100
AcDbEntity
  8
0
  6
Continuous
 62
     7
370
    18
100
AcDbLine
 10
702.7737310706
 20
38.1945733387
 30
0.0
 11
737.8625895844
 21
38.1945733387
 31
0.0
  0
LINE
  5
B0
330
1F
100
AcDbEntity
  8
0
  6
Continuous
 62
     7
370
    18
100
AcDbLine
 10
652.5541319701
 20
24.4944383331
 30
0.0
 11
702.7737310706
 21
24.4944383331
 31
0.0
  0
LINE
  5
B1
330
1F
100
AcDbEntity
  8
0
  6
Continuous
 62
     7
370
    18
100
AcDbLine
 10
610.9690166746
 20
12.7
 30
0.0
 11
610.9690166746
 21
35.9244383331
 31
0.0
  0
LINE
  5
B2
330
1F
100
AcDbEntity
  8
0
  6
Continuous
 62
     7
370
    18
100
AcDbLine
 10
652.5541319701
 20
35.9244383331
 30
0.0
 11
610.9690166746
 21
35.9244383331
 31
0.0
  0
LINE
  5
B3
330
1F
100
AcDbEntity
  8
0
  6
Continuous
 62
     7
370
    50
100
AcDbLine
 10
12.7
 20
12.7
 30
0.0
 11
12.7
 21
546.1
 31
0.0
  0
LINE
  5
B4
330
1F
100
AcDbEntity
  8
0
  6
Continuous
 62
     7
370
    50
100
AcDbLine
 10
12.7
 20
546.1
 30
0.0
 11
850.9
 21
546.1
 31
0.0
  0
LINE
  5
B5
330
1F
100
AcDbEntity
  8
0
  6
Continuous
 62
     7
370
    50
100
AcDbLine
 10
850.9
 20
546.1
 30
0.0
 11
850.9
 21
12.7
 31
0.0
  0
LINE
  5
B6
330
1F
100
AcDbEntity
  8
0
  6
Continuous
 62
     7
370
    50
100
AcDbLine
 10
850.9
 20
12.7
 30
0.0
 11
12.7
 21
12.7
 31
0.0
  0
LINE
  5
B7
330
1F
100
AcDbEntity
  8
0
  6
Continuous
 62
     7
370
    25
100
AcDbLine
 10
3.175
 20
279.4
 30
0.0
 11
12.7
 21
279.4
 31
0.0
  0
LINE
  5
B8
330
1F
100
AcDbEntity
  8
0
  6
Continuous
 62
     7
370
    25
100
AcDbLine
 10
431.8
 20
555.625
 30
0.0
 11
431.8
 21
546.1
 31
0.0
  0
LINE
  5
B9
330
1F
100
AcDbEntity
  8
0
  6
Continuous
 62
     7
370
    25
100
AcDbLine
 10
860.425
 20
279.4
 30
0.0
 11
850.9
 21
279.4
 31
0.0
  0
LINE
  5
BA
330
1F
100
AcDbEntity
  8
0
  6
Continuous
 62
     7
370
    25
100
AcDbLine
 10
431.8
 20
3.175
 30
0.0
 11
431.8
 21
12.7
 31
0.0
  0
LINE
  5
BB
330
1F
100
AcDbEntity
  8
0
  6
Continuous
 62
     7
370
    25
100
AcDbLine
 10
12.7
 20
139.7
 30
0.0
 11
3.175
 21
139.7
 31
0.0
  0
LINE
  5
BC
330
1F
100
AcDbEntity
  8
0
  6
Continuous
 62
     7
370
    25
100
AcDbLine
 10
850.9
 20
139.7
 30
0.0
 11
860.425
 21
139.7
 31
0.0
  0
LINE
  5
BD
330
1F
100
AcDbEntity
  8
0
  6
Continuous
 62
     7
370
    25
100
AcDbLine
 10
12.7
 20
279.4
 30
0.0
 11
3.175
 21
279.4
 31
0.0
  0
LINE
  5
BE
330
1F
100
AcDbEntity
  8
0
  6
Continuous
 62
     7
370
    25
100
AcDbLine
 10
850.9
 20
279.4
 30
0.0
 11
860.425
 21
279.4
 31
0.0
  0
LINE
  5
BF
330
1F
100
AcDbEntity
  8
0
  6
Continuous
 62
     7
370
    25
100
AcDbLine
 10
12.7
 20
419.1
 30
0.0
 11
3.175
 21
419.1
 31
0.0
  0
LINE
  5
C0
330
1F
100
AcDbEntity
  8
0
  6
Continuous
 62
     7
370
    25
100
AcDbLine
 10
850.9
 20
419.1
 30
0.0
 11
860.425
 21
419.1
 31
0.0
  0
LINE
  5
C1
330
1F
100
AcDbEntity
  8
0
  6
Continuous
 62
     7
370
    25
100
AcDbLine
 10
107.95
 20
546.1
 30
0.0
 11
107.95
 21
555.625
 31
0.0
  0
LINE
  5
C2
330
1F
100
AcDbEntity
  8
0
  6
Continuous
 62
     7
370
    25
100
AcDbLine
 10
107.95
 20
12.7
 30
0.0
 11
107.95
 21
3.175
 31
0.0
  0
LINE
  5
C3
330
1F
100
AcDbEntity
  8
0
  6
Continuous
 62
     7
370
    25
100
AcDbLine
 10
215.9
 20
546.1
 30
0.0
 11
215.9
 21
555.625
 31
0.0
  0
LINE
  5
C4
330
1F
100
AcDbEntity
  8
0
  6
Continuous
 62
     7
370
    25
100
AcDbLine
 10
215.9
 20
12.7
 30
0.0
 11
215.9
 21
3.175
 31
0.0
  0
LINE
  5
C5
330
1F
100
AcDbEntity
  8
0
  6
Continuous
 62
     7
370
    25
100
AcDbLine
 10
323.85
 20
546.1
 30
0.0
 11
323.85
 21
555.625
 31
0.0
  0
LINE
  5
C6
330
1F
100
AcDbEntity
  8
0
  6
Continuous
 62
     7
370
    25
100
AcDbLine
 10
323.85
 20
12.7
 30
0.0
 11
323.85
 21
3.175
 31
0.0
  0
LINE
  5
C7
330
1F
100
AcDbEntity
  8
0
  6
Continuous
 62
     7
370
    25
100
AcDbLine
 10
431.8
 20
546.1
 30
0.0
 11
431.8
 21
555.625
 31
0.0
  0
LINE
  5
C8
330
1F
100
AcDbEntity
  8
0
  6
Continuous
 62
     7
370
    25
100
AcDbLine
 10
431.8
 20
12.7
 30
0.0
 11
431.8
 21
3.175
 31
0.0
  0
LINE
  5
C9
330
1F
100
AcDbEntity
  8
0
  6
Continuous
 62
     7
370
    25
100
AcDbLine
 10
539.75
 20
546.1
 30
0.0
 11
539.75
 21
555.625
 31
0.0
  0
LINE
  5
CA
330
1F
100
AcDbEntity
  8
0
  6
Continuous
 62
     7
370
    25
100
AcDbLine
 10
539.75
 20
12.7
 30
0.0
 11
539.75
 21
3.175
 31
0.0
  0
LINE
  5
CB
330
1F
100
AcDbEntity
  8
0
  6
Continuous
 62
     7
370
    25
100
AcDbLine
 10
647.7
 20
546.1
 30
0.0
 11
647.7
 21
555.625
 31
0.0
  0
LINE
  5
CC
330
1F
100
AcDbEntity
  8
0
  6
Continuous
 62
     7
370
    25
100
AcDbLine
 10
647.7
 20
12.7
 30
0.0
 11
647.7
 21
3.175
 31
0.0
  0
LINE
  5
CD
330
1F
100
AcDbEntity
  8
0
  6
Continuous
 62
     7
370
    25
100
AcDbLine
 10
755.65
 20
546.1
 30
0.0
 11
755.65
 21
555.625
 31
0.0
  0
LINE
  5
CE
330
1F
100
AcDbEntity
  8
0
  6
Continuous
 62
     7
370
    25
100
AcDbLine
 10
755.65
 20
12.7
 30
0.0
 11
755.65
 21
3.175
 31
0.0
  0
DIMENSION
  5
CF
330
1F
100
AcDbEntity
  8
0
  6
Continuous
 62
     7
370
    18
100
AcDbDimension
  2
_D
 10
117.9074434366
 20
478.841040532
 30
0.0
 11
80.4177794088
 21
478.841040532
 31
0.0
 70
   160
  1
<>
 71
     2
 42
-1.0
  3
SLDDIMSTYLE0
100
AcDbAlignedDimension
 13
45.9074434366
 23
493.592467498
 33
0.0
 14
117.9074434366
 24
493.592467498
 34
0.0
100
AcDbRotatedDimension
  0
DIMENSION
  5
DC
330
1F
100
AcDbEntity
  8
0
  6
Continuous
 62
     7
370
    18
100
AcDbDimension
  2
_D_1
 10
317.9074434366
 20
470.8146062595
 30
0.0
 11
199.1344180755
 21
470.8146062595
 31
0.0
 70
   160
  1
<>
 71
     2
 42
-1.0
  3
SLDDIMSTYLE0
100
AcDbAlignedDimension
 13
117.9074434366
 23
489.592467498
 33
0.0
 14
317.9074434366
 24
489.592467498
 34
0.0
100
AcDbRotatedDimension
  0
DIMENSION
  5
E7
330
1F
100
AcDbEntity
  8
0
  6
Continuous
 62
     7
370
    18
100
AcDbDimension
  2
_D_2
 10
393.9074434366
 20
483.9303187524
 30
0.0
 11
361.3949899134
 21
483.9303187524
 31
0.0
 70
   160
  1
<>
 71
     2
 42
-1.0
  3
SLDDIMSTYLE0
100
AcDbAlignedDimension
 13
317.9074434366
 23
493.592467498
 33
0.0
 14
393.9074434366
 24
493.592467498
 34
0.0
100
AcDbRotatedDimension
  0
DIMENSION
  5
F2
330
1F
100
AcDbEntity
  8
0
  6
Continuous
 62
     7
370
    18
100
AcDbDimension
  2
_D_3
 10
116.1491700602
 20
399.3319343644
 30
0.0
 11
78.6595060325
 21
399.3319343644
 31
0.0
 70
   160
  1
<>
 71
     2
 42
-1.0
  3
SLDDIMSTYLE0
100
AcDbAlignedDimension
 13
44.1491700602
 23
414.0833613304
 33
0.0
 14
116.1491700602
 24
414.0833613304
 34
0.0
100
AcDbRotatedDimension
  0
DIMENSION
  5
FD
330
1F
100
AcDbEntity
  8
0
  6
Continuous
 62
     7
370
    18
100
AcDbDimension
  2
_D_4
 10
316.1491700602
 20
391.3055000919
 30
0.0
 11
197.3761446992
 21
391.3055000919
 31
0.0
 70
   160
  1
<>
 71
     2
 42
-1.0
  3
SLDDIMSTYLE0
100
AcDbAlignedDimension
 13
116.1491700602
 23
410.0833613304
 33
0.0
 14
316.1491700602
 24
410.0833613304
 34
0.0
100
AcDbRotatedDimension
  0
DIMENSION
  5
108
330
1F
100
AcDbEntity
  8
0
  6
Continuous
 62
     7
370
    18
100
AcDbDimension
  2
_D_5
 10
392.1491700602
 20
404.4212125848
 30
0.0
 11
359.6367165371
 21
404.4212125848
 31
0.0
 70
   160
  1
<>
 71
     2
 42
-1.0
  3
SLDDIMSTYLE0
100
AcDbAlignedDimension
 13
316.1491700602
 23
414.0833613304
 33
0.0
 14
392.1491700602
 24
414.0833613304
 34
0.0
100
AcDbRotatedDimension
  0
DIMENSION
  5
113
330
1F
100
AcDbEntity
  8
0
  6
Continuous
 62
     7
370
    18
100
AcDbDimension
  2
_D_6
 10
-102.0
 20
-20.251426966
 30
0.0
 11
-139.4896640278
 21
-20.251426966
 31
0.0
 70
   160
  1
<>
 71
     2
 42
-1.0
  3
SLDDIMSTYLE0
100
AcDbAlignedDimension
 13
-174.0
 23
-5.5
 33
0.0
 14
-102.0
 24
-5.5
 34
0.0
 50
0.0
100
AcDbRotatedDimension
  0
DIMENSION
  5
11E
330
1F
100
AcDbEntity
  8
0
  6
Continuous
 62
     7
370
    18
100
AcDbDimension
  2
_D_7
 10
98.0
 20
-28.2778612384
 30
0.0
 11
-20.7730253611
 21
-28.2778612384
 31
0.0
 70
   160
  1
<>
 71
     2
 42
-1.0
  3
SLDDIMSTYLE0
100
AcDbAlignedDimension
 13
-102.0
 23
-9.5
 33
0.0
 14
98.0
 24
-9.5
 34
0.0
 50
0.0
100
AcDbRotatedDimension
  0
DIMENSION
  5
129
330
1F
100
AcDbEntity
  8
0
  6
Continuous
 62
     7
370
    18
100
AcDbDimension
  2
_D_8
 10
174.0
 20
-15.1621487455
 30
0.0
 11
141.4875464768
 21
-15.1621487455
 31
0.0
 70
   160
  1
<>
 71
     2
 42
-1.0
  3
SLDDIMSTYLE0
100
AcDbAlignedDimension
 13
98.0
 23
-5.5
 33
0.0
 14
174.0
 24
-5.5
 34
0.0
 50
0.0
100
AcDbRotatedDimension
  0
DIMENSION
  5
134
330
1F
100
AcDbEntity
  8
0
  6
Continuous
 62
     7
370
    18
100
AcDbDimension
  2
_D_9
 10
-102.0
 20
-20.251426966
 30
0.0
 11
-139.4896640278
 21
-20.251426966
 31
0.0
 70
   160
  1
<>
 71
     2
 42
-1.0
  3
SLDDIMSTYLE0
100
AcDbAlignedDimension
 13
-174.0
 23
-5.5
 33
0.0
 14
-102.0
 24
-5.5
 34
0.0
 50
0.0
100
AcDbRotatedDimension
  0
DIMENSION
  5
13F
330
1F
100
AcDbEntity
  8
0
  6
Continuous
 62
     7
370
    18
100
AcDbDimension
  2
_D_10
 10
98.0
 20
-28.2778612384
 30
0.0
 11
-20.7730253611
 21
-28.2778612384
 31
0.0
 70
   160
  1
<>
 71
     2
 42
-1.0
  3
SLDDIMSTYLE0
100
AcDbAlignedDimension
 13
-102.0
 23
-9.5
 33
0.0
 14
98.0
 24
-9.5
 34
0.0
 50
0.0
100
AcDbRotatedDimension
  0
DIMENSION
  5
14A
330
1F
100
AcDbEntity
  8
0
  6
Continuous
 62
     7
370
    18
100
AcDbDimension
  2
_D_11
 10
174.0
 20
-15.1621487455
 30
0.0
 11
141.4875464768
 21
-15.1621487455
 31
0.0
 70
   160
  1
<>
 71
     2
 42
-1.0
  3
SLDDIMSTYLE0
100
AcDbAlignedDimension
 13
98.0
 23
-5.5
 33
0.0
 14
174.0
 24
-5.5
 34
0.0
 50
0.0
100
AcDbRotatedDimension
  0
DIMENSION
  5
155
330
1F
100
AcDbEntity
  8
0
  6
Continuous
 62
     7
370
    18
100
AcDbDimension
  2
_D_12
 10
119.9755876729
 20
299.3389189685
 30
0.0
 11
82.4859236451
 21
299.3389189685
 31
0.0
 70
   160
  1
<>
 71
     2
 42
-1.0
  3
SLDDIMSTYLE0
100
AcDbAlignedDimension
 13
47.9755876729
 23
314.0903459344
 33
0.0
 14
119.9755876729
 24
314.0903459344
 34
0.0
100
AcDbRotatedDimension
  0
DIMENSION
  5
160
330
1F
100
AcDbEntity
  8
0
  6
Continuous
 62
     7
370
    18
100
AcDbDimension
  2
_D_13
 10
319.9755876729
 20
291.312484696
 30
0.0
 11
201.2025623118
 21
291.312484696
 31
0.0
 70
   160
  1
<>
 71
     2
 42
-1.0
  3
SLDDIMSTYLE0
100
AcDbAlignedDimension
 13
119.9755876729
 23
310.0903459344
 33
0.0
 14
319.9755876729
 24
310.0903459344
 34
0.0
100
AcDbRotatedDimension
  0
DIMENSION
  5
16B
330
1F
100
AcDbEntity
  8
0
  6
Continuous
 62
     7
370
    18
100
AcDbDimension
  2
_D_14
 10
395.9755876729
 20
304.4281971889
 30
0.0
 11
363.4631341497
 21
304.4281971889
 31
0.0
 70
   160
  1
<>
 71
     2
 42
-1.0
  3
SLDDIMSTYLE0
100
AcDbAlignedDimension
 13
319.9755876729
 23
314.0903459344
 33
0.0
 14
395.9755876729
 24
314.0903459344
 34
0.0
100
AcDbRotatedDimension
  0
DIMENSION
  5
176
330
1F
100
AcDbEntity
  8
0
  6
Continuous
 62
     7
370
    18
100
AcDbDimension
  2
_D_15
 10
118.2173142965
 20
219.8298128009
 30
0.0
 11
80.7276502687
 21
219.8298128009
 31
0.0
 70
   160
  1
<>
 71
     2
 42
-1.0
  3
SLDDIMSTYLE0
100
AcDbAlignedDimension
 13
46.2173142965
 23
234.5812397668
 33
0.0
 14
118.2173142965
 24
234.5812397668
 34
0.0
100
AcDbRotatedDimension
  0
DIMENSION
  5
181
330
1F
100
AcDbEntity
  8
0
  6
Continuous
 62
     7
370
    18
100
AcDbDimension
  2
_D_16
 10
318.2173142965
 20
211.8033785284
 30
0.0
 11
199.4442889354
 21
211.8033785284
 31
0.0
 70
   160
  1
<>
 71
     2
 42
-1.0
  3
SLDDIMSTYLE0
100
AcDbAlignedDimension
 13
118.2173142965
 23
230.5812397668
 33
0.0
 14
318.2173142965
 24
230.5812397668
 34
0.0
100
AcDbRotatedDimension
  0
DIMENSION
  5
18C
330
1F
100
AcDbEntity
  8
0
  6
Continuous
 62
     7
370
    18
100
AcDbDimension
  2
_D_17
 10
394.2173142965
 20
224.9190910213
 30
0.0
 11
361.7048607733
 21
224.9190910213
 31
0.0
 70
   160
  1
<>
 71
     2
 42
-1.0
  3
SLDDIMSTYLE0
100
AcDbAlignedDimension
 13
318.2173142965
 23
234.5812397668
 33
0.0
 14
394.2173142965
 24
234.5812397668
 34
0.0
100
AcDbRotatedDimension
  0
MTEXT
  5
197
330
1F
100
AcDbEntity
  8
0
  6
Continuous
 62
     7
370
     0
100
AcDbMText
 10
6.1065833417
 20
69.8256904019
 30
0.0
 40
6.096
 41
0.0
 71
     2
 72
     1
  1
A
  7
SLDTEXTSTYLE0
 73
     1
 44
1.0
  0
MTEXT
  5
198
330
1F
100
AcDbEntity
  8
0
  6
Continuous
 62
     7
370
     0
100
AcDbMText
 10
857.0065833417
 20
69.8256904019
 30
0.0
 40
6.096
 41
0.0
 71
     2
 72
     1
  1
A
  7
SLDTEXTSTYLE0
 73
     1
 44
1.0
  0
MTEXT
  5
199
330
1F
100
AcDbEntity
  8
0
  6
Continuous
 62
     7
370
     0
100
AcDbMText
 10
6.3034332283
 20
209.5256904019
 30
0.0
 40
6.096
 41
0.0
 71
     2
 72
     1
  1
B
  7
SLDTEXTSTYLE0
 73
     1
 44
1.0
  0
MTEXT
  5
19A
330
1F
100
AcDbEntity
  8
0
  6
Continuous
 62
     7
370
     0
100
AcDbMText
 10
857.2034332283
 20
209.5256904019
 30
0.0
 40
6.096
 41
0.0
 71
     2
 72
     1
  1
B
  7
SLDTEXTSTYLE0
 73
     1
 44
1.0
  0
MTEXT
  5
19B
330
1F
100
AcDbEntity
  8
0
  6
Continuous
 62
     7
370
     0
100
AcDbMText
 10
6.2865000027
 20
349.2256904019
 30
0.0
 40
6.096
 41
0.0
 71
     2
 72
     1
  1
C
  7
SLDTEXTSTYLE0
 73
     1
 44
1.0
  0
MTEXT
  5
19C
330
1F
100
AcDbEntity
  8
0
  6
Continuous
 62
     7
370
     0
100
AcDbMText
 10
857.1865000027
 20
349.2256904019
 30
0.0
 40
6.096
 41
0.0
 71
     2
 72
     1
  1
C
  7
SLDTEXTSTYLE0
 73
     1
 44
1.0
  0
MTEXT
  5
19D
330
1F
100
AcDbEntity
  8
0
  6
Continuous
 62
     7
370
     0
100
AcDbMText
 10
6.2801500347
 20
488.9256904019
 30
0.0
 40
6.096
 41
0.0
 71
     2
 72
     1
  1
D
  7
SLDTEXTSTYLE0
 73
     1
 44
1.0
  0
MTEXT
  5
19E
330
1F
100
AcDbEntity
  8
0
  6
Continuous
 62
     7
370
     0
100
AcDbMText
 10
857.1801500347
 20
488.9256904019
 30
0.0
 40
6.096
 41
0.0
 71
     2
 72
     1
  1
D
  7
SLDTEXTSTYLE0
 73
     1
 44
1.0
  0
MTEXT
  5
19F
330
1F
100
AcDbEntity
  8
0
  6
Continuous
 62
     7
370
     0
100
AcDbMText
 10
53.9136166697
 20
9.4636904019
 30
0.0
 40
6.096
 41
0.0
 71
     2
 72
     1
  1
8
  7
SLDTEXTSTYLE0
 73
     1
 44
1.0
  0
MTEXT
  5
1A0
330
1F
100
AcDbEntity
  8
0
  6
Continuous
 62
     7
370
     0
100
AcDbMText
 10
53.9136166697
 20
555.5636904019
 30
0.0
 40
6.096
 41
0.0
 71
     2
 72
     1
  1
8
  7
SLDTEXTSTYLE0
 73
     1
 44
1.0
  0
MTEXT
  5
1A1
330
1F
100
AcDbEntity
  8
0
  6
Continuous
 62
     7
370
     0
100
AcDbMText
 10
161.8636166697
 20
9.4636904019
 30
0.0
 40
6.096
 41
0.0
 71
     2
 72
     1
  1
7
  7
SLDTEXTSTYLE0
 73
     1
 44
1.0
  0
MTEXT
  5
1A2
330
1F
100
AcDbEntity
  8
0
  6
Continuous
 62
     7
370
     0
100
AcDbMText
 10
161.8636166697
 20
555.5636904019
 30
0.0
 40
6.096
 41
0.0
 71
     2
 72
     1
  1
7
  7
SLDTEXTSTYLE0
 73
     1
 44
1.0
  0
MTEXT
  5
1A3
330
1F
100
AcDbEntity
  8
0
  6
Continuous
 62
     7
370
     0
100
AcDbMText
 10
269.8136166697
 20
9.4636904019
 30
0.0
 40
6.096
 41
0.0
 71
     2
 72
     1
  1
6
  7
SLDTEXTSTYLE0
 73
     1
 44
1.0
  0
MTEXT
  5
1A4
330
1F
100
AcDbEntity
  8
0
  6
Continuous
 62
     7
370
     0
100
AcDbMText
 10
269.8136166697
 20
555.5636904019
 30
0.0
 40
6.096
 41
0.0
 71
     2
 72
     1
  1
6
  7
SLDTEXTSTYLE0
 73
     1
 44
1.0
  0
MTEXT
  5
1A5
330
1F
100
AcDbEntity
  8
0
  6
Continuous
 62
     7
370
     0
100
AcDbMText
 10
377.7636166697
 20
9.4636904019
 30
0.0
 40
6.096
 41
0.0
 71
     2
 72
     1
  1
5
  7
SLDTEXTSTYLE0
 73
     1
 44
1.0
  0
MTEXT
  5
1A6
330
1F
100
AcDbEntity
  8
0
  6
Continuous
 62
     7
370
     0
100
AcDbMText
 10
377.7636166697
 20
555.5636904019
 30
0.0
 40
6.096
 41
0.0
 71
     2
 72
     1
  1
5
  7
SLDTEXTSTYLE0
 73
     1
 44
1.0
  0
MTEXT
  5
1A7
330
1F
100
AcDbEntity
  8
0
  6
Continuous
 62
     7
370
     0
100
AcDbMText
 10
485.7136166697
 20
9.4636904019
 30
0.0
 40
6.096
 41
0.0
 71
     2
 72
     1
  1
4
  7
SLDTEXTSTYLE0
 73
     1
 44
1.0
  0
MTEXT
  5
1A8
330
1F
100
AcDbEntity
  8
0
  6
Continuous
 62
     7
370
     0
100
AcDbMText
 10
485.7136166697
 20
555.5636904019
 30
0.0
 40
6.096
 41
0.0
 71
     2
 72
     1
  1
4
  7
SLDTEXTSTYLE0
 73
     1
 44
1.0
  0
MTEXT
  5
1A9
330
1F
100
AcDbEntity
  8
0
  6
Continuous
 62
     7
370
     0
100
AcDbMText
 10
593.6636166697
 20
9.4636904019
 30
0.0
 40
6.096
 41
0.0
 71
     2
 72
     1
  1
3
  7
SLDTEXTSTYLE0
 73
     1
 44
1.0
  0
MTEXT
  5
1AA
330
1F
100
AcDbEntity
  8
0
  6
Continuous
 62
     7
370
     0
100
AcDbMText
 10
593.6636166697
 20
555.5636904019
 30
0.0
 40
6.096
 41
0.0
 71
     2
 72
     1
  1
3
  7
SLDTEXTSTYLE0
 73
     1
 44
1.0
  0
MTEXT
  5
1AB
330
1F
100
AcDbEntity
  8
0
  6
Continuous
 62
     7
370
     0
100
AcDbMText
 10
701.6136166697
 20
9.4636904019
 30
0.0
 40
6.096
 41
0.0
 71
     2
 72
     1
  1
2
  7
SLDTEXTSTYLE0
 73
     1
 44
1.0
  0
MTEXT
  5
1AC
330
1F
100
AcDbEntity
  8
0
  6
Continuous
 62
     7
370
     0
100
AcDbMText
 10
701.6136166697
 20
555.5636904019
 30
0.0
 40
6.096
 41
0.0
 71
     2
 72
     1
  1
2
  7
SLDTEXTSTYLE0
 73
     1
 44
1.0
  0
MTEXT
  5
1AD
330
1F
100
AcDbEntity
  8
0
  6
Continuous
 62
     7
370
     0
100
AcDbMText
 10
809.5636166697
 20
9.4636904019
 30
0.0
 40
6.096
 41
0.0
 71
     2
 72
     1
  1
1
  7
SLDTEXTSTYLE0
 73
     1
 44
1.0
  0
MTEXT
  5
1AE
330
1F
100
AcDbEntity
  8
0
  6
Continuous
 62
     7
370
     0
100
AcDbMText
 10
809.5636166697
 20
555.5636904019
 30
0.0
 40
6.096
 41
0.0
 71
     2
 72
     1
  1
1
  7
SLDTEXTSTYLE0
 73
     1
 44
1.0
  0
MTEXT
  5
1AF
330
1F
100
AcDbEntity
  8
0
  6
Continuous
 62
     7
370
     0
100
AcDbMText
 10
720.253747668
 20
15.8946104384
 30
0.0
 40
1.5875
 41
0.0
 71
     2
 72
     1
  1
DO NOT SCALE DRAWING
  7
SLDTEXTSTYLE0
 73
     1
 44
1.0
  0
MTEXT
  5
1B0
330
1F
100
AcDbEntity
  8
0
  6
Continuous
 62
     7
370
     0
100
AcDbMText
 10
813.6577735232
 20
26.8729198671
 30
0.0
 40
6.35
 41
0.0
 71
     2
 72
     1
  1
Draw_20
  7
SLDTEXTSTYLE0
 73
     1
 44
1.0
  0
MTEXT
  5
1B2
330
1F
100
AcDbEntity
  8
0
  6
Continuous
 62
     7
370
     0
100
AcDbMText
 10
828.7309015475
 20
16.7729098749
 30
0.0
 40
2.54
 41
0.0
 71
     1
 72
     1
  1
SHEET 1 OF 1
  7
SLDTEXTSTYLE1
 73
     1
 44
1.0
  0
MTEXT
  5
1B3
330
1F
100
AcDbEntity
  8
0
  6
Continuous
 62
     7
370
     0
100
AcDbMText
 10
703.9579719589
 20
61.4990449608
 30
0.0
 40
1.778
 41
0.0
 71
     1
 72
     1
  1
UNLESS OTHERWISE SPECIFIED:
  7
SLDTEXTSTYLE0
 73
     1
 44
1.0
  0
MTEXT
  5
1B4
330
1F
100
AcDbEntity
  8
0
  6
Continuous
 62
     7
370
     0
100
AcDbMText
 10
783.0486489046
 20
16.7646506765
 30
0.0
 40
2.54
 41
0.0
 71
     1
 72
     1
  1
SCALE: 1:1
  7
SLDTEXTSTYLE0
 73
     1
 44
1.0
  0
MTEXT
  5
1B5
330
1F
100
AcDbEntity
  8
0
  6
Continuous
 62
     7
370
     0
100
AcDbMText
 10
801.9400309829
 20
16.6777203587
 30
0.0
 40
2.54
 41
0.0
 71
     1
 72
     1
  1
WEIGHT:
  7
SLDTEXTSTYLE0
 73
     1
 44
1.0
  0
MTEXT
  5
1B6
330
1F
100
AcDbEntity
  8
0
  6
Continuous
 62
     7
370
     0
100
AcDbMText
 10
840.6849098979
 20
30.2232854568
 30
0.0
 40
2.54
 41
0.0
 71
     1
 72
     1
  1
REV
  7
SLDTEXTSTYLE0
 73
     1
 44
1.0
  0
MTEXT
  5
1B8
330
1F
100
AcDbEntity
  8
0
  6
Continuous
 62
     7
370
     0
100
AcDbMText
 10
791.6806642798
 20
30.3225037079
 30
0.0
 40
2.54
 41
0.0
 71
     1
 72
     1
  1
DWG.  NO.
  7
SLDTEXTSTYLE2
 73
     1
 44
1.0
  0
MTEXT
  5
1B9
330
1F
100
AcDbEntity
  8
0
  6
Continuous
 62
     7
370
     0
100
AcDbMText
 10
783.0800000853
 20
26.7243788986
 30
0.0
 40
6.35
 41
0.0
 71
     1
 72
     1
  1
D
  7
SLDTEXTSTYLE0
 73
     1
 44
1.0
  0
MTEXT
  5
1BA
330
1F
100
AcDbEntity
  8
0
  6
Continuous
 62
     7
370
     0
100
AcDbMText
 10
782.879592027
 20
30.3580337109
 30
0.0
 40
2.54
 41
0.0
 71
     1
 72
     1
  1
SIZE
  7
SLDTEXTSTYLE0
 73
     1
 44
1.0
  0
MTEXT
  5
1BB
330
1F
100
AcDbEntity
  8
0
  6
Continuous
 62
     7
370
     0
100
AcDbMText
 10
781.9934428097
 20
52.3929595276
 30
0.0
 40
2.54
 41
0.0
 71
     1
 72
     1
  1
TITLE:
  7
SLDTEXTSTYLE0
 73
     1
 44
1.0
  0
MTEXT
  5
1BC
330
1F
100
AcDbEntity
  8
0
  6
Continuous
 62
     7
370
     0
100
AcDbMText
 10
759.6238425205
 20
60.9229910986
 30
0.0
 40
1.651
 41
0.0
 71
     1
 72
     1
  1
NAME
  7
SLDTEXTSTYLE0
 73
     1
 44
1.0
  0
MTEXT
  5
1BD
330
1F
100
AcDbEntity
  8
0
  6
Continuous
 62
     7
370
     0
100
AcDbMText
 10
772.1148912103
 20
60.8788912243
 30
0.0
 40
1.651
 41
0.0
 71
     1
 72
     1
  1
DATE
  7
SLDTEXTSTYLE0
 73
     1
 44
1.0
  0
MTEXT
  5
1BE
330
1F
100
AcDbEntity
  8
0
  6
Continuous
 62
     7
370
     0
100
AcDbMText
 10
739.0838076531
 20
32.9087008505
 30
0.0
 40
1.651
 41
0.0
 71
     1
 72
     1
  1
COMMENTS:
  7
SLDTEXTSTYLE0
 73
     1
 44
1.0
  0
MTEXT
  5
1BF
330
1F
100
AcDbEntity
  8
0
  6
Continuous
 62
     7
370
     0
100
AcDbMText
 10
739.0616193103
 20
37.1230397293
 30
0.0
 40
1.651
 41
0.0
 71
     1
 72
     1
  1
Q.A.
  7
SLDTEXTSTYLE0
 73
     1
 44
1.0
  0
MTEXT
  5
1C0
330
1F
100
AcDbEntity
  8
0
  6
Continuous
 62
     7
370
     0
100
AcDbMText
 10
739.1028766528
 20
41.8454756596
 30
0.0
 40
1.651
 41
0.0
 71
     1
 72
     1
  1
MFG APPR.
  7
SLDTEXTSTYLE0
 73
     1
 44
1.0
  0
MTEXT
  5
1C1
330
1F
100
AcDbEntity
  8
0
  6
Continuous
 62
     7
370
     0
100
AcDbMText
 10
738.977189414
 20
46.6007959981
 30
0.0
 40
1.651
 41
0.0
 71
     1
 72
     1
  1
ENG APPR.
  7
SLDTEXTSTYLE0
 73
     1
 44
1.0
  0
MTEXT
  5
1C2
330
1F
100
AcDbEntity
  8
0
  6
Continuous
 62
     7
370
     0
100
AcDbMText
 10
739.0506782356
 20
51.2367971468
 30
0.0
 40
1.651
 41
0.0
 71
     1
 72
     1
  1
CHECKED
  7
SLDTEXTSTYLE0
 73
     1
 44
1.0
  0
MTEXT
  5
1C3
330
1F
100
AcDbEntity
  8
0
  6
Continuous
 62
     7
370
     0
100
AcDbMText
 10
738.996551863
 20
56.122746594
 30
0.0
 40
1.651
 41
0.0
 71
     1
 72
     1
  1
DRAWN
  7
SLDTEXTSTYLE0
 73
     1
 44
1.0
  0
MTEXT
  5
1C4
330
1F
100
AcDbEntity
  8
0
  6
Continuous
 62
     7
370
     0
100
AcDbMText
 10
703.3497006873
 20
23.9382316328
 30
0.0
 40
1.524
 41
0.0
 71
     1
 72
     1
  1
FINISH
  7
SLDTEXTSTYLE0
 73
     1
 44
1.0
  0
MTEXT
  5
1C5
330
1F
100
AcDbEntity
  8
0
  6
Continuous
 62
     7
370
     0
100
AcDbMText
 10
703.2802054458
 20
30.7530141342
 30
0.0
 40
1.524
 41
0.0
 71
     1
 72
     1
  1
MATERIAL
  7
SLDTEXTSTYLE0
 73
     1
 44
1.0
  0
MTEXT
  5
1C6
330
1F
100
AcDbEntity
  8
0
  6
Continuous
 62
     7
370
     0
100
AcDbMText
 10
703.4089478467
 20
36.8280997832
 30
0.0
 40
1.524
 41
0.0
 71
     1
 72
     1
  1
INTERPRET GEOMETRIC
  7
SLDTEXTSTYLE0
 73
     1
 44
1.0
  0
MTEXT
  5
1C7
330
1F
100
AcDbEntity
  8
0
  6
Continuous
 62
     7
370
     0
100
AcDbMText
 10
703.4089478467
 20
34.3040998892
 30
0.0
 40
1.524
 41
0.0
 71
     1
 72
     1
  1
TOLERANCING PER:
  7
SLDTEXTSTYLE0
 73
     1
 44
1.0
  0
MTEXT
  5
1C8
330
1F
100
AcDbEntity
  8
0
  6
Continuous
 62
     7
370
     0
100
AcDbMText
 10
703.7173361573
 20
55.7944808598
 30
0.0
 40
1.651
 41
0.0
 71
     1
 72
     1
  1
DIMENSIONS ARE IN INCHES
  7
SLDTEXTSTYLE0
 73
     1
 44
1.0
  0
MTEXT
  5
1C9
330
1F
100
AcDbEntity
  8
0
  6
Continuous
 62
     7
370
     0
100
AcDbMText
 10
703.7173361573
 20
53.1434809301
 30
0.0
 40
1.651
 41
0.0
 71
     1
 72
     1
  1
TOLERANCES:
  7
SLDTEXTSTYLE0
 73
     1
 44
1.0
  0
MTEXT
  5
1CA
330
1F
100
AcDbEntity
  8
0
  6
Continuous
 62
     7
370
     0
100
AcDbMText
 10
703.7173361573
 20
50.4924810003
 30
0.0
 40
1.651
 41
0.0
 71
     1
 72
     1
  1
FRACTIONAL
  7
SLDTEXTSTYLE0
 73
     1
 44
1.0
  0
MTEXT
  5
1CB
330
1F
100
AcDbEntity
  8
0
  6
Continuous
 62
     7
370
     0
100
AcDbMText
 10
716.863996448
 20
50.4924810003
 30
0.0
 40
1.651
 41
0.0
 71
     1
 72
     1
  1
%%p
  7
SLDTEXTSTYLE0
 73
     1
 44
1.0
  0
MTEXT
  5
1CC
330
1F
100
AcDbEntity
  8
0
  6
Continuous
 62
     7
370
     0
100
AcDbMText
 10
703.7173361573
 20
47.8414810706
 30
0.0
 40
1.651
 41
0.0
 71
     1
 72
     1
  1
ANGULAR: MACH
  7
SLDTEXTSTYLE0
 73
     1
 44
1.0
  0
MTEXT
  5
1CD
330
1F
100
AcDbEntity
  8
0
  6
Continuous
 62
     7
370
     0
100
AcDbMText
 10
722.0910173896
 20
47.8414810706
 30
0.0
 40
1.651
 41
0.0
 71
     1
 72
     1
  1
%%p
  7
SLDTEXTSTYLE0
 73
     1
 44
1.0
  0
MTEXT
  5
1CE
330
1F
100
AcDbEntity
  8
0
  6
Continuous
 62
     7
370
     0
100
AcDbMText
 10
726.7592196724
 20
47.8414810706
 30
0.0
 40
1.651
 41
0.0
 71
     1
 72
     1
  1
BEND
  7
SLDTEXTSTYLE0
 73
     1
 44
1.0
  0
MTEXT
  5
1CF
330
1F
100
AcDbEntity
  8
0
  6
Continuous
 62
     7
370
     0
100
AcDbMText
 10
732.8725048396
 20
47.8414810706
 30
0.0
 40
1.651
 41
0.0
 71
     1
 72
     1
  1
%%p
  7
SLDTEXTSTYLE0
 73
     1
 44
1.0
  0
MTEXT
  5
1D0
330
1F
100
AcDbEntity
  8
0
  6
Continuous
 62
     7
370
     0
100
AcDbMText
 10
703.7173361573
 20
45.1904811408
 30
0.0
 40
1.651
 41
0.0
 71
     1
 72
     1
  1
TWO PLACE DECIMAL
  7
SLDTEXTSTYLE0
 73
     1
 44
1.0
  0
MTEXT
  5
1D1
330
1F
100
AcDbEntity
  8
0
  6
Continuous
 62
     7
370
     0
100
AcDbMText
 10
728.5949830953
 20
45.1904811408
 30
0.0
 40
1.651
 41
0.0
 71
     1
 72
     1
  1
%%p
  7
SLDTEXTSTYLE0
 73
     1
 44
1.0
  0
MTEXT
  5
1D2
330
1F
100
AcDbEntity
  8
0
  6
Continuous
 62
     7
370
     0
100
AcDbMText
 10
703.7173361573
 20
42.5394812111
 30
0.0
 40
1.651
 41
0.0
 71
     1
 72
     1
  1
THREE PLACE DECIMAL
  7
SLDTEXTSTYLE0
 73
     1
 44
1.0
  0
MTEXT
  5
1D3
330
1F
100
AcDbEntity
  8
0
  6
Continuous
 62
     7
370
     0
100
AcDbMText
 10
728.4519524369
 20
42.5394812111
 30
0.0
 40
1.651
 41
0.0
 71
     1
 72
     1
  1
%%p
  7
SLDTEXTSTYLE0
 73
     1
 44
1.0
  0
MTEXT
  5
1D4
330
1F
100
AcDbEntity
  8
0
  6
Continuous
 62
     7
370
     0
100
AcDbMText
 10
671.149610419
 20
15.9495751364
 30
0.0
 40
1.5875
 41
0.0
 71
     1
 72
     1
  1
APPLICATION
  7
SLDTEXTSTYLE0
 73
     1
 44
1.0
  0
MTEXT
  5
1D5
330
1F
100
AcDbEntity
  8
0
  6
Continuous
 62
     7
370
     0
100
AcDbMText
 10
685.0540979063
 20
21.7975753227
 30
0.0
 40
1.5875
 41
0.0
 71
     1
 72
     1
  1
USED ON
  7
SLDTEXTSTYLE0
 73
     1
 44
1.0
  0
MTEXT
  5
1D6
330
1F
100
AcDbEntity
  8
0
  6
Continuous
 62
     7
370
     0
100
AcDbMText
 10
659.7415038203
 20
21.7712622135
 30
0.0
 40
1.5875
 41
0.0
 71
     1
 72
     1
  1
NEXT ASSY
  7
SLDTEXTSTYLE0
 73
     1
 44
1.0
  0
MTEXT
  5
1D7
330
1F
100
AcDbEntity
  8
0
  6
Continuous
 62
     7
370
     0
100
AcDbMText
 10
615.7295775012
 20
34.482890082
 30
0.0
 40
1.524
 41
0.0
 71
     1
 72
     1
  1
PROPRIETARY AND CONFIDENTIAL
  7
SLDTEXTSTYLE0
 73
     1
 44
1.0
  0
MTEXT
  5
1D8
330
1F
100
AcDbEntity
  8
0
  6
Continuous
 62
     7
370
     0
100
AcDbMText
 10
611.9544252483
 20
30.9021527191
 30
0.0
 40
1.524
 41
0.0
 71
     1
 72
     1
  1
THE INFORMATION CONTAINED IN THIS
  7
SLDTEXTSTYLE0
 73
     1
 44
1.0
  0
MTEXT
  5
1D9
330
1F
100
AcDbEntity
  8
0
  6
Continuous
 62
     7
370
     0
100
AcDbMText
 10
611.9544252483
 20
28.3781528251
 30
0.0
 40
1.524
 41
0.0
 71
     1
 72
     1
  1
DRAWING IS THE SOLE PROPERTY OF
  7
SLDTEXTSTYLE0
 73
     1
 44
1.0
  0
MTEXT
  5
1DA
330
1F
100
AcDbEntity
  8
0
  6
Continuous
 62
     7
370
     0
100
AcDbMText
 10
611.9544252483
 20
25.854152931
 30
0.0
 40
1.524
 41
0.0
 71
     1
 72
     1
  1
<INSERT COMPANY NAME HERE>.  ANY
  7
SLDTEXTSTYLE0
 73
     1
 44
1.0
  0
MTEXT
  5
1DB
330
1F
100
AcDbEntity
  8
0
  6
Continuous
 62
     7
370
     0
100
AcDbMText
 10
611.9544252483
 20
23.330153037
 30
0.0
 40
1.524
 41
0.0
 71
     1
 72
     1
  1
REPRODUCTION IN PART OR AS A WHOLE
  7
SLDTEXTSTYLE0
 73
     1
 44
1.0
  0
MTEXT
  5
1DC
330
1F
100
AcDbEntity
  8
0
  6
Continuous
 62
     7
370
     0
100
AcDbMText
 10
611.9544252483
 20
20.8061531429
 30
0.0
 40
1.524
 41
0.0
 71
     1
 72
     1
  1
WITHOUT THE WRITTEN PERMISSION OF
  7
SLDTEXTSTYLE0
 73
     1
 44
1.0
  0
MTEXT
  5
1DD
330
1F
100
AcDbEntity
  8
0
  6
Continuous
 62
     7
370
     0
100
AcDbMText
 10
611.9544252483
 20
18.2821532489
 30
0.0
 40
1.524
 41
0.0
 71
     1
 72
     1
  1
<INSERT COMPANY NAME HERE> IS
  7
SLDTEXTSTYLE0
 73
     1
 44
1.0
  0
MTEXT
  5
1DE
330
1F
100
AcDbEntity
  8
0
  6
Continuous
 62
     7
370
     0
100
AcDbMText
 10
611.9544252483
 20
15.7581533549
 30
0.0
 40
1.524
 41
0.0
 71
     1
 72
     1
  1
PROHIBITED.
  7
SLDTEXTSTYLE0
 73
     1
 44
1.0
  0
MTEXT
  5
1E0
330
1F
100
AcDbEntity
  8
0
  6
Continuous
 62
     7
100
AcDbMText
 10
0.0
 20
26.9625872166
 30
0.0
 40
9.66724
 41
0.0
 71
     1
 72
     1
  1
SOLIDWORKS Educational Product.
  7
SLDTEXTSTYLE3
 73
     1
 44
1.0
  0
MTEXT
  5
1E1
330
1F
100
AcDbEntity
  8
0
  6
Continuous
 62
     7
100
AcDbMText
 10
0.0
 20
12.4617272166
 30
0.0
 40
9.66724
 41
0.0
 71
     1
 72
     1
  1
For Instructional Use Only.
  7
SLDTEXTSTYLE3
 73
     1
 44
1.0
  0
ENDSEC
  0
SECTION
  2
OBJECTS
  0
DICTIONARY
  5
C
330
0
100
AcDbDictionary
281
     1
  3
ACAD_GROUP
350
D
  3
ACAD_LAYOUT
350
1A
  3
ACAD_MLINESTYLE
350
17
  3
ACAD_PLOTSETTINGS
350
19
  3
ACAD_PLOTSTYLENAME
350
E
  3
ACAD_SCALELIST
350
47
  3
DWGPROPS
350
1E2
  0
DICTIONARY
  5
D
102
{ACAD_REACTORS
330
C
102
}
330
C
100
AcDbDictionary
281
     1
  0
DICTIONARY
  5
1A
102
{ACAD_REACTORS
330
C
102
}
330
C
100
AcDbDictionary
281
     1
  3
Layout1
350
1E
  3
Layout2
350
26
  3
Model
350
22
  0
DICTIONARY
  5
17
102
{ACAD_REACTORS
330
C
102
}
330
C
100
AcDbDictionary
281
     1
  3
Standard
350
18
  0
DICTIONARY
  5
19
102
{ACAD_REACTORS
330
C
102
}
330
C
100
AcDbDictionary
281
     1
  0
ACDBDICTIONARYWDFLT
  5
E
102
{ACAD_REACTORS
330
C
102
}
330
C
100
AcDbDictionary
281
     1
  3
Normal
350
F
100
AcDbDictionaryWithDefault
340
F
  0
DICTIONARY
  5
47
102
{ACAD_REACTORS
330
C
102
}
330
C
100
AcDbDictionary
281
     1
  3
A0
350
48
  3
A1
350
49
  3
A2
350
4A
  3
A3
350
4B
  3
A4
350
4C
  3
A5
350
4D
  3
A6
350
4E
  3
A7
350
4F
  3
A8
350
50
  3
A9
350
51
  3
B0
350
52
  3
B1
350
53
  3
B2
350
54
  3
B3
350
55
  3
B4
350
56
  3
B5
350
57
  3
B6
350
58
  0
XRECORD
  5
1E2
102
{ACAD_REACTORS
330
C
102
}
330
C
100
AcDbXrecord
280
     1
  1
DWGPROPS COOKIE
  2

  3

  4

  6

  7

  8
vaibh
  9

300
=
301
=
302
=
303
=
304
=
305
=
306
=
307
=
308
=
309
=
 40
0.0
 41
2460700.880539769
 42
2460700.88054316
  1

 90
        0
  0
LAYOUT
  5
1E
102
{ACAD_REACTORS
330
1A
102
}
330
1A
100
AcDbPlotSettings
  1

  2
none_device
  4

  6

 40
0.0
 41
0.0
 42
0.0
 43
0.0
 44
0.0
 45
0.0
 46
0.0
 47
0.0
 48
0.0
 49
0.0
140
0.0
141
0.0
142
1.0
143
1.0
 70
   688
 72
     1
 73
     0
 74
     5
  7

 75
    16
147
1.0
148
0.0
149
0.0
100
AcDbLayout
  1
Layout1
 70
     1
 71
     1
 10
0.0
 20
0.0
 11
420.0
 21
297.0
 12
0.0
 22
0.0
 32
0.0
 14
1.0000000000E+20
 24
1.0000000000E+20
 34
1.0000000000E+20
 15
-1.0000000000E+20
 25
-1.0000000000E+20
 35
-1.0000000000E+20
146
0.0
 13
0.0
 23
0.0
 33
0.0
 16
1.0
 26
0.0
 36
0.0
 17
0.0
 27
1.0
 37
0.0
 76
     0
330
1B
  0
LAYOUT
  5
26
102
{ACAD_REACTORS
330
1A
102
}
330
1A
100
AcDbPlotSettings
  1

  2
none_device
  4

  6

 40
0.0
 41
0.0
 42
0.0
 43
0.0
 44
0.0
 45
0.0
 46
0.0
 47
0.0
 48
0.0
 49
0.0
140
0.0
141
0.0
142
1.0
143
1.0
 70
   688
 72
     1
 73
     0
 74
     5
  7

 75
    16
147
1.0
148
0.0
149
0.0
100
AcDbLayout
  1
Layout2
 70
     1
 71
     2
 10
0.0
 20
0.0
 11
0.0
 21
0.0
 12
0.0
 22
0.0
 32
0.0
 14
0.0
 24
0.0
 34
0.0
 15
0.0
 25
0.0
 35
0.0
146
0.0
 13
0.0
 23
0.0
 33
0.0
 16
1.0
 26
0.0
 36
0.0
 17
0.0
 27
1.0
 37
0.0
 76
     0
330
23
  0
LAYOUT
  5
22
102
{ACAD_REACTORS
330
1A
102
}
330
1A
100
AcDbPlotSettings
  1

  2
none_device
  4
Letter_(8.50_x_11.00_Inches)
  6

 40
6.35
 41
6.35
 42
6.35000508
 43
6.35000508
 44
215.9
 45
279.4
 46
0.0
 47
0.0
 48
0.0
 49
0.0
140
0.0
141
0.0
142
1.0
143
1.0
 70
  1712
 72
     1
 73
     0
 74
     0
  7

 75
     0
147
1.0
148
0.0
149
0.0
100
AcDbLayout
  1
Model
 70
     1
 71
     0
 10
0.0
 20
0.0
 11
863.6
 21
558.8
 12
0.0
 22
0.0
 32
0.0
 14
0.0
 24
0.0
 34
0.0
 15
863.6
 25
558.8
 35
0.0
146
0.0
 13
0.0
 23
0.0
 33
0.0
 16
1.0
 26
0.0
 36
0.0
 17
0.0
 27
1.0
 37
0.0
 76
     0
330
1F
331
29
  0
MLINESTYLE
  5
18
102
{ACAD_REACTORS
330
17
102
}
330
17
100
AcDbMlineStyle
  2
Standard
 70
     0
  3

 62
   256
 51
90.0
 52
90.0
 71
     2
 49
0.5
 62
   256
  6
BYLAYER
 49
-0.5
 62
   256
  6
BYLAYER
  0
ACDBPLACEHOLDER
  5
F
102
{ACAD_REACTORS
330
E
102
}
330
E
  0
SCALE
  5
48
102
{ACAD_REACTORS
330
47
102
}
330
47
100
AcDbScale
 70
     0
300
1:1
140
1.0
141
1.0
290
     1
  0
SCALE
  5
49
102
{ACAD_REACTORS
330
47
102
}
330
47
100
AcDbScale
 70
     0
300
1:2
140
1.0
141
2.0
290
     0
  0
SCALE
  5
4A
102
{ACAD_REACTORS
330
47
102
}
330
47
100
AcDbScale
 70
     0
300
1:4
140
1.0
141
4.0
290
     0
  0
SCALE
  5
4B
102
{ACAD_REACTORS
330
47
102
}
330
47
100
AcDbScale
 70
     0
300
1:5
140
1.0
141
5.0
290
     0
  0
SCALE
  5
4C
102
{ACAD_REACTORS
330
47
102
}
330
47
100
AcDbScale
 70
     0
300
1:8
140
1.0
141
8.0
290
     0
  0
SCALE
  5
4D
102
{ACAD_REACTORS
330
47
102
}
330
47
100
AcDbScale
 70
     0
300
1:10
140
1.0
141
10.0
290
     0
  0
SCALE
  5
4E
102
{ACAD_REACTORS
330
47
102
}
330
47
100
AcDbScale
 70
     0
300
1:16
140
1.0
141
16.0
290
     0
  0
SCALE
  5
4F
102
{ACAD_REACTORS
330
47
102
}
330
47
100
AcDbScale
 70
     0
300
1:20
140
1.0
141
20.0
290
     0
  0
SCALE
  5
50
102
{ACAD_REACTORS
330
47
102
}
330
47
100
AcDbScale
 70
     0
300
1:30
140
1.0
141
30.0
290
     0
  0
SCALE
  5
51
102
{ACAD_REACTORS
330
47
102
}
330
47
100
AcDbScale
 70
     0
300
1:40
140
1.0
141
40.0
290
     0
  0
SCALE
  5
52
102
{ACAD_REACTORS
330
47
102
}
330
47
100
AcDbScale
 70
     0
300
1:50
140
1.0
141
50.0
290
     0
  0
SCALE
  5
53
102
{ACAD_REACTORS
330
47
102
}
330
47
100
AcDbScale
 70
     0
300
1:100
140
1.0
141
100.0
290
     0
  0
SCALE
  5
54
102
{ACAD_REACTORS
330
47
102
}
330
47
100
AcDbScale
 70
     0
300
2:1
140
2.0
141
1.0
290
     0
  0
SCALE
  5
55
102
{ACAD_REACTORS
330
47
102
}
330
47
100
AcDbScale
 70
     0
300
4:1
140
4.0
141
1.0
290
     0
  0
SCALE
  5
56
102
{ACAD_REACTORS
330
47
102
}
330
47
100
AcDbScale
 70
     0
300
8:1
140
8.0
141
1.0
290
     0
  0
SCALE
  5
57
102
{ACAD_REACTORS
330
47
102
}
330
47
100
AcDbScale
 70
     0
300
10:1
140
10.0
141
1.0
290
     0
  0
SCALE
  5
58
102
{ACAD_REACTORS
330
47
102
}
330
47
100
AcDbScale
 70
     0
300
100:1
140
100.0
141
1.0
290
     0
  0
ENDSEC
  0
EOF
